<svg xmlns="http://www.w3.org/2000/svg" xmlns:xlink="http://www.w3.org/1999/xlink" width="500" zoomAndPan="magnify" viewBox="0 0 375 374.999991" height="500" preserveAspectRatio="xMidYMid meet" version="1.0"><defs><g/><clipPath id="7584afb349"><path d="M 16.125 85.570312 L 21.40625 85.570312 L 21.40625 183.351562 L 16.125 183.351562 Z M 16.125 85.570312 " clip-rule="nonzero"/></clipPath><clipPath id="f674abf795"><path d="M 16.199219 178.820312 L 358.796875 178.820312 L 358.796875 183.492188 L 16.199219 183.492188 Z M 16.199219 178.820312 " clip-rule="nonzero"/></clipPath></defs><g clip-path="url(#7584afb349)"><path fill="#132f27" d="M 16.125 85.570312 L 21.40625 85.570312 L 21.40625 183.351562 L 16.125 183.351562 Z M 16.125 85.570312 " fill-opacity="1" fill-rule="nonzero"/></g><path stroke-linecap="butt" transform="matrix(0.75, 0, 0, 0.75, 3.242644, 109.62131)" fill="none" stroke-linejoin="miter" d="M 55.181687 5.666378 L 55.181687 62.728882 L 79.733772 62.728882 L 79.733772 76.999716 L 38.926477 76.999716 L 38.926477 5.666378 Z M 112.686899 5.666378 L 112.686899 76.999716 L 96.431689 76.999716 L 96.431689 5.666378 Z M 190.671279 76.999716 L 187.296279 34.713255 L 186.869195 34.713255 L 172.265028 76.577841 L 162.572319 76.577841 L 147.962943 34.713255 L 147.520234 34.713255 L 144.166068 76.999716 L 127.910858 76.999716 L 134.306692 5.666378 L 151.593151 5.666378 L 167.405652 46.812214 L 183.238987 5.666378 L 200.530655 5.666378 L 206.926488 76.999716 Z M 238.410865 5.666378 L 238.410865 76.999716 L 222.155656 76.999716 L 222.155656 5.666378 Z M 273.692118 32.72888 L 273.692118 76.999716 L 257.436908 76.999716 L 257.436908 5.666378 L 273.692118 5.666378 L 302.041078 49.937214 L 302.212953 49.937214 L 302.212953 5.666378 L 318.488996 5.666378 L 318.488996 76.999716 L 302.212953 76.999716 L 273.858784 32.72888 Z M 373.728583 5.666378 L 402.525459 76.999716 L 385.067125 76.999716 L 379.791083 62.728882 L 352.64004 62.728882 L 347.363998 76.999716 L 329.88483 76.999716 L 358.676498 5.666378 Z M 374.259833 48.458048 L 366.301499 27.708046 L 366.129624 27.708046 L 358.17129 48.458048 Z M 430.197336 5.666378 L 430.197336 62.728882 L 454.749421 62.728882 L 454.749421 76.999716 L 413.942127 76.999716 L 413.942127 5.666378 Z M 430.197336 5.666378 " stroke="#132f27" stroke-width="3.24264" stroke-opacity="1" stroke-miterlimit="4"/><g fill="#132f27" fill-opacity="1"><g transform="translate(84.027952, 248.095383)"><g><path d="M 16.421875 -54.609375 L 16.421875 -10.921875 L 35.21875 -10.921875 L 35.21875 0 L 3.96875 0 L 3.96875 -54.609375 Z M 16.421875 -54.609375 "/></g></g></g><g fill="#132f27" fill-opacity="1"><g transform="translate(128.035689, 248.095383)"><g><path d="M -1.984375 -54.609375 L 12.96875 -54.609375 L 24.359375 -37.125 L 35.734375 -54.609375 L 50.703125 -54.609375 L 30.578125 -24.484375 L 30.578125 0 L 18.140625 0 L 18.140625 -24.484375 Z M -1.984375 -54.609375 "/></g></g></g><g fill="#132f27" fill-opacity="1"><g transform="translate(183.359492, 248.095383)"><g><path d="M 49.109375 0 L 46.53125 -32.359375 L 46.203125 -32.359375 L 35.015625 -0.328125 L 27.59375 -0.328125 L 16.421875 -32.359375 L 16.078125 -32.359375 L 13.5 0 L 1.0625 0 L 5.953125 -54.609375 L 19.1875 -54.609375 L 31.3125 -23.09375 L 43.421875 -54.609375 L 56.65625 -54.609375 L 61.546875 0 Z M 49.109375 0 "/></g></g></g><g fill="#132f27" fill-opacity="1"><g transform="translate(252.580222, 248.095383)"><g><path d="M 35.21875 -54.609375 L 35.21875 -43.6875 L 16.421875 -43.6875 L 16.421875 -32.828125 L 34.421875 -32.828125 L 34.421875 -21.90625 L 16.421875 -21.90625 L 16.421875 -10.921875 L 35.21875 -10.921875 L 35.21875 0 L 3.96875 0 L 3.96875 -54.609375 Z M 35.21875 -54.609375 "/></g></g></g><g clip-path="url(#f674abf795)"><path fill="#132f27" d="M 16.199219 183.492188 L 16.199219 178.820312 L 358.800781 178.820312 L 358.800781 183.492188 Z M 16.199219 183.492188 " fill-opacity="1" fill-rule="nonzero"/></g></svg>