<svg xmlns="http://www.w3.org/2000/svg" width="500" viewBox="0 0 375 375" height="500" version="1.0"><defs><clipPath id="a"><path d="M16.125 85.57h5.281v97.782h-5.281zm0 0"/></clipPath><clipPath id="b"><path d="M16.2 178.82h342.597v4.672H16.199zm0 0"/></clipPath></defs><g clip-path="url(#a)"><path fill="#132f27" d="M16.125 85.57h5.281v97.782h-5.281zm0 0"/></g><path fill="none" d="M44.629 113.871v42.797h18.414v10.703H32.438v-53.5zm43.129 0v53.5H75.566v-53.5zm58.488 53.5-2.531-31.715h-.32l-10.954 31.399h-7.27l-10.956-31.399h-.332l-2.516 31.715H99.176l4.797-53.5h12.965l11.859 30.86 11.875-30.86h12.969l4.797 53.5zm35.805-53.5v53.5h-12.192v-53.5zm26.46 20.297v33.203h-12.19v-53.5h12.19l21.262 33.203h.13v-33.203h12.206v53.5h-12.207l-21.265-33.203zm75.028-20.297 21.598 53.5h-13.094l-3.957-10.703h-20.363l-3.957 10.703h-13.11l21.594-53.5zm.399 32.094-5.97-15.563h-.128l-5.969 15.563zm41.953-32.094v42.797h18.414v10.703h-30.606v-53.5zm0 0" stroke="#132f27" stroke-width="2.43225"/><path d="M100.45 193.486v43.688h18.797v10.921h-31.25v-54.609zM126.051 193.486h14.953l11.391 17.484 11.375-17.484h14.969l-20.125 30.125v24.484h-12.438v-24.484zM232.469 248.095l-2.578-32.359h-.328l-11.188 32.031h-7.422l-11.172-32.031h-.343l-2.579 32.36h-12.437l4.89-54.61h13.235l12.125 31.516 12.11-31.516h13.234l4.89 54.61zM287.799 193.486v10.922h-18.797v10.86h18v10.921h-18v10.985H287.8v10.921h-31.25v-54.609zm0 0" fill="#132f27"/><g clip-path="url(#b)"><path fill="#132f27" d="M16.2 183.492v-4.672h342.6v4.672zm0 0"/></g></svg>