<svg xmlns="http://www.w3.org/2000/svg" version="1.1" xmlns:xlink="http://www.w3.org/1999/xlink" xmlns:svgjs="http://svgjs.dev/svgjs" width="1560" height="2440" preserveAspectRatio="none" viewBox="0 0 1560 2440">
    <g mask="url(&quot;#SvgjsMask1028&quot;)" fill="none">
        <rect width="1560" height="2440" x="0" y="0" fill="rgba(231, 231, 231, 1)"></rect>
        <path d="M1367.86 1552.03L1367.86 1558.34L1417.4 1558.34L1417.4 1552.03zM1406.22 1555.19 a11.18 11.18 0 1 0 22.36 0 a11.18 11.18 0 1 0 -22.36 0zM1359.89 1598.42L1357.47 1604.25L1390.42 1617.9L1392.83 1612.06zM1380.45 1614.98 a11.18 11.18 0 1 0 22.36 0 a11.18 11.18 0 1 0 -22.36 0zM1334.77 1638.22L1330.31 1642.69L1371.47 1683.85L1375.93 1679.39zM1362.52 1681.62 a11.18 11.18 0 1 0 22.36 0 a11.18 11.18 0 1 0 -22.36 0zM1296.33 1665.39L1290.5 1667.81L1298.89 1688.06L1304.72 1685.64zM1290.62 1686.85 a11.18 11.18 0 1 0 22.36 0 a11.18 11.18 0 1 0 -22.36 0zM1250.43 1675.78L1244.11 1675.78L1244.11 1707.7L1250.43 1707.7zM1236.09 1707.7 a11.18 11.18 0 1 0 22.36 0 a11.18 11.18 0 1 0 -22.36 0zM1204.04 1667.81L1198.2 1665.39L1190.3 1684.48L1196.13 1686.89zM1182.03 1685.69 a11.18 11.18 0 1 0 22.36 0 a11.18 11.18 0 1 0 -22.36 0zM1164.23 1642.69L1159.76 1638.22L1144.19 1653.8L1148.65 1658.27zM1135.24 1656.04 a11.18 11.18 0 1 0 22.36 0 a11.18 11.18 0 1 0 -22.36 0zM1137.06 1604.25L1134.65 1598.42L1087.41 1617.98L1089.83 1623.82zM1077.44 1620.9 a11.18 11.18 0 1 0 22.36 0 a11.18 11.18 0 1 0 -22.36 0zM1126.68 1558.34L1126.68 1552.03L1082.35 1552.03L1082.35 1558.34zM1071.17 1555.19 a11.18 11.18 0 1 0 22.36 0 a11.18 11.18 0 1 0 -22.36 0zM1134.65 1511.95L1137.06 1506.12L1090.44 1486.81L1088.02 1492.64zM1078.05 1489.72 a11.18 11.18 0 1 0 22.36 0 a11.18 11.18 0 1 0 -22.36 0zM1159.76 1472.15L1164.23 1467.68L1135.37 1438.82L1130.91 1443.29zM1121.96 1441.06 a11.18 11.18 0 1 0 22.36 0 a11.18 11.18 0 1 0 -22.36 0zM1198.2 1444.98L1204.04 1442.56L1186.59 1400.45L1180.76 1402.86zM1172.49 1401.65 a11.18 11.18 0 1 0 22.36 0 a11.18 11.18 0 1 0 -22.36 0zM1244.11 1434.59L1250.43 1434.59L1250.43 1410.39L1244.11 1410.39zM1236.09 1410.39 a11.18 11.18 0 1 0 22.36 0 a11.18 11.18 0 1 0 -22.36 0zM1290.5 1442.56L1296.33 1444.98L1309.56 1413.05L1303.72 1410.64zM1295.46 1411.84 a11.18 11.18 0 1 0 22.36 0 a11.18 11.18 0 1 0 -22.36 0zM1330.31 1467.68L1334.77 1472.15L1351.56 1455.36L1347.09 1450.89zM1338.15 1453.13 a11.18 11.18 0 1 0 22.36 0 a11.18 11.18 0 1 0 -22.36 0zM1357.47 1506.12L1359.89 1511.95L1403.27 1493.99L1400.85 1488.15zM1390.88 1491.07 a11.18 11.18 0 1 0 22.36 0 a11.18 11.18 0 1 0 -22.36 0zM1126.64 1555.19 a120.63 120.63 0 1 0 241.26 0 a120.63 120.63 0 1 0 -241.26 0z" fill="rgba(137, 137, 137, 0.75)"></path>
        <path d="M1167.13 1465.02 A119.63359999999999 119.63359999999999 0 0 1 1365.37 1530.62M1365.37 1530.62 A241.26719999999997 241.26719999999997 0 0 0 1167.13 1465.02" fill="rgba(110, 110, 110, 0.75)" fill-rule="nonzero"></path>
        <path d="M1297.75 1593.36 a24.13 24.13 0 1 0 48.26 0 a24.13 24.13 0 1 0 -48.26 0zM1263.82 1626.27 a9.65 9.65 0 1 0 19.3 0 a9.65 9.65 0 1 0 -19.3 0zM1180.04 1635.78 a24.13 24.13 0 1 0 48.26 0 a24.13 24.13 0 1 0 -48.26 0zM1140.43 1579.14 a21.71 21.71 0 1 0 43.42 0 a21.71 21.71 0 1 0 -43.42 0zM1229.65 1591.66 a4.83 4.83 0 1 0 9.66 0 a4.83 4.83 0 1 0 -9.66 0zM1209.81 1534 a24.13 24.13 0 1 0 48.26 0 a24.13 24.13 0 1 0 -48.26 0zM1312.2 1484.96 a14.48 14.48 0 1 0 28.96 0 a14.48 14.48 0 1 0 -28.96 0zM1349.74 1541.42 a8.44 8.44 0 1 0 16.88 0 a8.44 8.44 0 1 0 -16.88 0zM1209.52 1451.15 a13.27 13.27 0 1 0 26.54 0 a13.27 13.27 0 1 0 -26.54 0zM1269.55 1568.51 a4.83 4.83 0 1 0 9.66 0 a4.83 4.83 0 1 0 -9.66 0z" fill="rgba(110, 110, 110, 0.75)" fill-rule="nonzero"></path>
        <path d="M473 144.61L473 149.35L510.55 149.35L510.55 144.61zM502.16 146.98 a8.39 8.39 0 1 0 16.78 0 a8.39 8.39 0 1 0 -16.78 0zM467.02 179.4L465.21 183.78L486.19 192.47L488 188.09zM478.7 190.28 a8.39 8.39 0 1 0 16.78 0 a8.39 8.39 0 1 0 -16.78 0zM448.18 209.26L444.83 212.61L465.08 232.85L468.43 229.5zM458.36 231.18 a8.39 8.39 0 1 0 16.78 0 a8.39 8.39 0 1 0 -16.78 0zM419.35 229.63L414.98 231.44L420.17 243.98L424.55 242.17zM413.97 243.08 a8.39 8.39 0 1 0 16.78 0 a8.39 8.39 0 1 0 -16.78 0zM384.92 237.42L380.18 237.42L380.18 251.96L384.92 251.96zM374.16 251.96 a8.39 8.39 0 1 0 16.78 0 a8.39 8.39 0 1 0 -16.78 0zM350.13 231.44L345.75 229.63L329.51 268.84L333.89 270.65zM323.31 269.75 a8.39 8.39 0 1 0 16.78 0 a8.39 8.39 0 1 0 -16.78 0zM320.27 212.61L316.92 209.26L287.49 238.69L290.84 242.04zM280.78 240.36 a8.39 8.39 0 1 0 16.78 0 a8.39 8.39 0 1 0 -16.78 0zM299.9 183.78L298.09 179.4L281.5 186.27L283.32 190.65zM274.02 188.46 a8.39 8.39 0 1 0 16.78 0 a8.39 8.39 0 1 0 -16.78 0zM292.11 149.35L292.11 144.61L276.89 144.61L276.89 149.35zM268.5 146.98 a8.39 8.39 0 1 0 16.78 0 a8.39 8.39 0 1 0 -16.78 0zM298.09 114.56L299.9 110.18L269.01 97.39L267.2 101.76zM259.72 99.57 a8.39 8.39 0 1 0 16.78 0 a8.39 8.39 0 1 0 -16.78 0zM316.92 84.7L320.27 81.35L296.79 57.87L293.44 61.22zM286.73 59.54 a8.39 8.39 0 1 0 16.78 0 a8.39 8.39 0 1 0 -16.78 0zM345.75 64.33L350.13 62.51L343.87 47.4L339.49 49.21zM333.29 48.3 a8.39 8.39 0 1 0 16.78 0 a8.39 8.39 0 1 0 -16.78 0zM380.18 56.53L384.92 56.53L384.92 36.88L380.18 36.88zM374.16 36.88 a8.39 8.39 0 1 0 16.78 0 a8.39 8.39 0 1 0 -16.78 0zM414.98 62.51L419.35 64.33L428.44 42.37L424.07 40.56zM417.87 41.47 a8.39 8.39 0 1 0 16.78 0 a8.39 8.39 0 1 0 -16.78 0zM444.83 81.35L448.18 84.7L465.46 67.42L462.11 64.07zM455.4 65.74 a8.39 8.39 0 1 0 16.78 0 a8.39 8.39 0 1 0 -16.78 0zM465.21 110.18L467.02 114.56L498.65 101.45L496.84 97.08zM489.36 99.26 a8.39 8.39 0 1 0 16.78 0 a8.39 8.39 0 1 0 -16.78 0zM292.07 146.98 a90.48 90.48 0 1 0 180.96 0 a90.48 90.48 0 1 0 -180.96 0z" fill="rgba(137, 137, 137, 0.75)"></path>
        <path d="M337.9 68.29 A89.4752 89.4752 0 0 1 473.03 147.47M473.03 147.47 A180.9504 180.9504 0 0 0 337.9 68.29" fill="rgba(110, 110, 110, 0.75)" fill-rule="nonzero"></path>
        <path d="M407.59 99.4 a18.09 18.09 0 1 0 36.18 0 a18.09 18.09 0 1 0 -36.18 0zM390.42 146.19 a14.48 14.48 0 1 0 28.96 0 a14.48 14.48 0 1 0 -28.96 0zM321.92 175.57 a18.09 18.09 0 1 0 36.18 0 a18.09 18.09 0 1 0 -36.18 0zM420.89 212.63 a9.05 9.05 0 1 0 18.1 0 a9.05 9.05 0 1 0 -18.1 0zM363.83 208.65 a11.76 11.76 0 1 0 23.52 0 a11.76 11.76 0 1 0 -23.52 0zM363.8 72.85 a16.29 16.29 0 1 0 32.58 0 a16.29 16.29 0 1 0 -32.58 0zM360.88 141.58 a5.43 5.43 0 1 0 10.86 0 a5.43 5.43 0 1 0 -10.86 0zM433.64 179.37 a8.14 8.14 0 1 0 16.28 0 a8.14 8.14 0 1 0 -16.28 0zM459.5 151.69 a6.33 6.33 0 1 0 12.66 0 a6.33 6.33 0 1 0 -12.66 0zM302.57 108.23 a8.14 8.14 0 1 0 16.28 0 a8.14 8.14 0 1 0 -16.28 0z" fill="rgba(110, 110, 110, 0.75)" fill-rule="nonzero"></path>
        <path d="M346.67 996.43L346.67 1002.74L362.81 1002.74L362.81 996.43zM351.63 999.58 a11.18 11.18 0 1 0 22.36 0 a11.18 11.18 0 1 0 -22.36 0zM338.7 1042.81L336.28 1048.65L389.33 1070.62L391.75 1064.79zM379.36 1067.71 a11.18 11.18 0 1 0 22.36 0 a11.18 11.18 0 1 0 -22.36 0zM313.58 1082.62L309.12 1087.09L344.65 1122.62L349.11 1118.15zM335.7 1120.39 a11.18 11.18 0 1 0 22.36 0 a11.18 11.18 0 1 0 -22.36 0zM275.14 1109.79L269.31 1112.2L287.28 1155.58L293.11 1153.16zM279.01 1154.37 a11.18 11.18 0 1 0 22.36 0 a11.18 11.18 0 1 0 -22.36 0zM229.23 1120.18L222.92 1120.18L222.92 1136.3L229.23 1136.3zM214.9 1136.3 a11.18 11.18 0 1 0 22.36 0 a11.18 11.18 0 1 0 -22.36 0zM182.85 1112.2L177.01 1109.79L163.55 1142.28L169.39 1144.7zM155.29 1143.49 a11.18 11.18 0 1 0 22.36 0 a11.18 11.18 0 1 0 -22.36 0zM143.04 1087.09L138.57 1082.62L103.86 1117.33L108.33 1121.8zM94.91 1119.57 a11.18 11.18 0 1 0 22.36 0 a11.18 11.18 0 1 0 -22.36 0zM115.87 1048.65L113.46 1042.81L71.58 1060.16L73.99 1066zM61.6 1063.08 a11.18 11.18 0 1 0 22.36 0 a11.18 11.18 0 1 0 -22.36 0zM105.48 1002.74L105.48 996.43L84.96 996.43L84.96 1002.74zM73.78 999.58 a11.18 11.18 0 1 0 22.36 0 a11.18 11.18 0 1 0 -22.36 0zM113.46 956.35L115.87 950.52L74.23 933.27L71.82 939.1zM61.84 936.19 a11.18 11.18 0 1 0 22.36 0 a11.18 11.18 0 1 0 -22.36 0zM138.57 916.54L143.04 912.08L107.06 876.1L102.59 880.57zM93.65 878.33 a11.18 11.18 0 1 0 22.36 0 a11.18 11.18 0 1 0 -22.36 0zM177.01 889.38L182.85 886.96L174.63 867.14L168.8 869.55zM160.54 868.34 a11.18 11.18 0 1 0 22.36 0 a11.18 11.18 0 1 0 -22.36 0zM222.92 878.99L229.23 878.99L229.23 836.58L222.92 836.58zM214.9 836.58 a11.18 11.18 0 1 0 22.36 0 a11.18 11.18 0 1 0 -22.36 0zM269.31 886.96L275.14 889.38L289.56 854.57L283.73 852.15zM275.46 853.36 a11.18 11.18 0 1 0 22.36 0 a11.18 11.18 0 1 0 -22.36 0zM309.12 912.08L313.58 916.54L355 875.12L350.54 870.66zM341.59 872.89 a11.18 11.18 0 1 0 22.36 0 a11.18 11.18 0 1 0 -22.36 0zM336.28 950.52L338.7 956.35L362.16 946.64L359.74 940.8zM349.77 943.72 a11.18 11.18 0 1 0 22.36 0 a11.18 11.18 0 1 0 -22.36 0zM105.45 999.58 a120.63 120.63 0 1 0 241.26 0 a120.63 120.63 0 1 0 -241.26 0z" fill="rgba(137, 137, 137, 0.75)"></path>
        <path d="M225.4 1120.21 A119.63359999999999 119.63359999999999 0 0 1 121.82 938.9M121.82 938.9 A241.26719999999997 241.26719999999997 0 0 0 225.4 1120.21" fill="rgba(110, 110, 110, 0.75)" fill-rule="nonzero"></path>
        <path d="M162.38 952.87 a24.13 24.13 0 1 0 48.26 0 a24.13 24.13 0 1 0 -48.26 0zM213.85 1085.95 a24.13 24.13 0 1 0 48.26 0 a24.13 24.13 0 1 0 -48.26 0zM257.09 912.98 a19.3 19.3 0 1 0 38.6 0 a19.3 19.3 0 1 0 -38.6 0zM229.37 1017.36 a20.51 20.51 0 1 0 41.02 0 a20.51 20.51 0 1 0 -41.02 0zM197.61 1038.63 a6.03 6.03 0 1 0 12.06 0 a6.03 6.03 0 1 0 -12.06 0zM106.39 1013.61 a14.48 14.48 0 1 0 28.96 0 a14.48 14.48 0 1 0 -28.96 0zM326.24 986.4 a9.65 9.65 0 1 0 19.3 0 a9.65 9.65 0 1 0 -19.3 0zM188.66 893.24 a9.65 9.65 0 1 0 19.3 0 a9.65 9.65 0 1 0 -19.3 0zM142.86 1079.21 a14.48 14.48 0 1 0 28.96 0 a14.48 14.48 0 1 0 -28.96 0zM166.17 1006.25 a6.03 6.03 0 1 0 12.06 0 a6.03 6.03 0 1 0 -12.06 0z" fill="rgba(110, 110, 110, 0.75)" fill-rule="nonzero"></path>
        <path d="M1136.91 2078.03L1136.91 2084.35L1184.87 2084.35L1184.87 2078.03zM1173.69 2081.19 a11.18 11.18 0 1 0 22.36 0 a11.18 11.18 0 1 0 -22.36 0zM1128.94 2124.42L1126.52 2130.26L1147.29 2138.86L1149.7 2133.02zM1137.32 2135.94 a11.18 11.18 0 1 0 22.36 0 a11.18 11.18 0 1 0 -22.36 0zM1103.82 2164.23L1099.35 2168.69L1136.64 2205.98L1141.1 2201.51zM1127.69 2203.75 a11.18 11.18 0 1 0 22.36 0 a11.18 11.18 0 1 0 -22.36 0zM1065.38 2191.39L1059.55 2193.81L1069.92 2218.85L1075.75 2216.43zM1061.65 2217.64 a11.18 11.18 0 1 0 22.36 0 a11.18 11.18 0 1 0 -22.36 0zM1019.47 2201.78L1013.16 2201.78L1013.16 2237.99L1019.47 2237.99zM1005.13 2237.99 a11.18 11.18 0 1 0 22.36 0 a11.18 11.18 0 1 0 -22.36 0zM973.08 2193.81L967.25 2191.39L948.75 2236.06L954.58 2238.48zM940.48 2237.27 a11.18 11.18 0 1 0 22.36 0 a11.18 11.18 0 1 0 -22.36 0zM933.28 2168.69L928.81 2164.23L906.49 2186.55L910.95 2191.02zM897.54 2188.78 a11.18 11.18 0 1 0 22.36 0 a11.18 11.18 0 1 0 -22.36 0zM906.11 2130.26L903.69 2124.42L850.8 2146.33L853.22 2152.16zM840.83 2149.25 a11.18 11.18 0 1 0 22.36 0 a11.18 11.18 0 1 0 -22.36 0zM895.72 2084.35L895.72 2078.03L879 2078.03L879 2084.35zM867.82 2081.19 a11.18 11.18 0 1 0 22.36 0 a11.18 11.18 0 1 0 -22.36 0zM903.69 2037.96L906.11 2032.12L853.69 2010.41L851.27 2016.25zM841.3 2013.33 a11.18 11.18 0 1 0 22.36 0 a11.18 11.18 0 1 0 -22.36 0zM928.81 1998.15L933.28 1993.69L901.92 1962.33L897.45 1966.79zM888.5 1964.56 a11.18 11.18 0 1 0 22.36 0 a11.18 11.18 0 1 0 -22.36 0zM967.25 1970.99L973.08 1968.57L953.09 1920.3L947.25 1922.71zM938.99 1921.5 a11.18 11.18 0 1 0 22.36 0 a11.18 11.18 0 1 0 -22.36 0zM1013.16 1960.6L1019.47 1960.6L1019.47 1944.23L1013.16 1944.23zM1005.13 1944.23 a11.18 11.18 0 1 0 22.36 0 a11.18 11.18 0 1 0 -22.36 0zM1059.55 1968.57L1065.38 1970.99L1075.57 1946.39L1069.73 1943.97zM1061.47 1945.18 a11.18 11.18 0 1 0 22.36 0 a11.18 11.18 0 1 0 -22.36 0zM1099.35 1993.69L1103.82 1998.15L1115.08 1986.89L1110.61 1982.43zM1101.66 1984.66 a11.18 11.18 0 1 0 22.36 0 a11.18 11.18 0 1 0 -22.36 0zM1126.52 2032.12L1128.94 2037.96L1147.45 2030.29L1145.03 2024.45zM1135.06 2027.37 a11.18 11.18 0 1 0 22.36 0 a11.18 11.18 0 1 0 -22.36 0zM895.68 2081.19 a120.63 120.63 0 1 0 241.26 0 a120.63 120.63 0 1 0 -241.26 0z" fill="rgba(137, 137, 137, 0.75)"></path>
        <path d="M922.25 2156.71 A119.63359999999999 119.63359999999999 0 0 1 997.69 1962M997.69 1962 A241.26719999999997 241.26719999999997 0 0 0 922.25 2156.71" fill="rgba(110, 110, 110, 0.75)" fill-rule="nonzero"></path>
        <path d="M912.98 2121.56 a24.13 24.13 0 1 0 48.26 0 a24.13 24.13 0 1 0 -48.26 0zM1004.26 2144.17 a24.13 24.13 0 1 0 48.26 0 a24.13 24.13 0 1 0 -48.26 0zM1115.51 2098.68 a9.65 9.65 0 1 0 19.3 0 a9.65 9.65 0 1 0 -19.3 0zM1074.22 1991.33 a8.44 8.44 0 1 0 16.88 0 a8.44 8.44 0 1 0 -16.88 0zM1074.71 2124.55 a12.06 12.06 0 1 0 24.12 0 a12.06 12.06 0 1 0 -24.12 0zM1070.69 2071.62 a14.48 14.48 0 1 0 28.96 0 a14.48 14.48 0 1 0 -28.96 0zM903.83 2043.16 a13.27 13.27 0 1 0 26.54 0 a13.27 13.27 0 1 0 -26.54 0zM955.97 2046.47 a24.13 24.13 0 1 0 48.26 0 a24.13 24.13 0 1 0 -48.26 0zM1098.12 2024.55 a6.03 6.03 0 1 0 12.06 0 a6.03 6.03 0 1 0 -12.06 0zM1015.55 1965.99 a4.83 4.83 0 1 0 9.66 0 a4.83 4.83 0 1 0 -9.66 0z" fill="rgba(110, 110, 110, 0.75)" fill-rule="nonzero"></path>
        <path d="M1193.31 770.87L1193.31 777.18L1248.03 777.18L1248.03 770.87zM1236.85 774.02 a11.18 11.18 0 1 0 22.36 0 a11.18 11.18 0 1 0 -22.36 0zM1185.34 817.25L1182.92 823.09L1196.77 828.83L1199.19 822.99zM1186.8 825.91 a11.18 11.18 0 1 0 22.36 0 a11.18 11.18 0 1 0 -22.36 0zM1160.22 857.06L1155.75 861.53L1174.8 880.58L1179.27 876.11zM1165.86 878.34 a11.18 11.18 0 1 0 22.36 0 a11.18 11.18 0 1 0 -22.36 0zM1121.78 884.23L1115.95 886.64L1127.22 913.86L1133.06 911.45zM1118.96 912.65 a11.18 11.18 0 1 0 22.36 0 a11.18 11.18 0 1 0 -22.36 0zM1075.87 894.62L1069.56 894.62L1069.56 915.2L1075.87 915.2zM1061.54 915.2 a11.18 11.18 0 1 0 22.36 0 a11.18 11.18 0 1 0 -22.36 0zM1029.49 886.64L1023.65 884.23L1007.65 922.86L1013.48 925.28zM999.38 924.07 a11.18 11.18 0 1 0 22.36 0 a11.18 11.18 0 1 0 -22.36 0zM989.68 861.53L985.21 857.06L958.86 883.42L963.32 887.88zM949.91 885.65 a11.18 11.18 0 1 0 22.36 0 a11.18 11.18 0 1 0 -22.36 0zM962.51 823.09L960.1 817.25L931.51 829.09L933.93 834.93zM921.54 832.01 a11.18 11.18 0 1 0 22.36 0 a11.18 11.18 0 1 0 -22.36 0zM952.12 777.18L952.12 770.87L901.06 770.87L901.06 777.18zM889.88 774.02 a11.18 11.18 0 1 0 22.36 0 a11.18 11.18 0 1 0 -22.36 0zM960.1 730.79L962.51 724.96L922.91 708.56L920.5 714.39zM910.53 711.47 a11.18 11.18 0 1 0 22.36 0 a11.18 11.18 0 1 0 -22.36 0zM985.21 690.98L989.68 686.52L959.8 656.64L955.34 661.11zM946.39 658.88 a11.18 11.18 0 1 0 22.36 0 a11.18 11.18 0 1 0 -22.36 0zM1023.65 663.82L1029.49 661.4L1007.43 608.15L1001.59 610.57zM993.33 609.36 a11.18 11.18 0 1 0 22.36 0 a11.18 11.18 0 1 0 -22.36 0zM1069.56 653.43L1075.87 653.43L1075.87 620.53L1069.56 620.53zM1061.54 620.53 a11.18 11.18 0 1 0 22.36 0 a11.18 11.18 0 1 0 -22.36 0zM1115.95 661.4L1121.78 663.82L1142.78 613.12L1136.95 610.7zM1128.69 611.91 a11.18 11.18 0 1 0 22.36 0 a11.18 11.18 0 1 0 -22.36 0zM1155.75 686.52L1160.22 690.98L1184.5 666.7L1180.04 662.24zM1171.09 664.47 a11.18 11.18 0 1 0 22.36 0 a11.18 11.18 0 1 0 -22.36 0zM1182.92 724.96L1185.34 730.79L1213.32 719.2L1210.9 713.37zM1200.93 716.28 a11.18 11.18 0 1 0 22.36 0 a11.18 11.18 0 1 0 -22.36 0zM952.09 774.02 a120.63 120.63 0 1 0 241.26 0 a120.63 120.63 0 1 0 -241.26 0z" fill="rgba(137, 137, 137, 0.75)"></path>
        <path d="M952.75 761.33 A119.63359999999999 119.63359999999999 0 0 1 1143.49 676.33M1143.49 676.33 A241.26719999999997 241.26719999999997 0 0 0 952.75 761.33" fill="rgba(110, 110, 110, 0.75)" fill-rule="nonzero"></path>
        <path d="M1029.4 714.62 a24.13 24.13 0 1 0 48.26 0 a24.13 24.13 0 1 0 -48.26 0zM1085.77 757.78 a13.27 13.27 0 1 0 26.54 0 a13.27 13.27 0 1 0 -26.54 0zM1134.47 773.94 a14.48 14.48 0 1 0 28.96 0 a14.48 14.48 0 1 0 -28.96 0zM1032.81 793.7 a20.51 20.51 0 1 0 41.02 0 a20.51 20.51 0 1 0 -41.02 0zM1063.48 857.49 a24.13 24.13 0 1 0 48.26 0 a24.13 24.13 0 1 0 -48.26 0zM1141.91 823.62 a10.86 10.86 0 1 0 21.72 0 a10.86 10.86 0 1 0 -21.72 0zM963.1 727.33 a15.68 15.68 0 1 0 31.36 0 a15.68 15.68 0 1 0 -31.36 0zM957.06 806.38 a4.83 4.83 0 1 0 9.66 0 a4.83 4.83 0 1 0 -9.66 0zM1118.94 721 a8.44 8.44 0 1 0 16.88 0 a8.44 8.44 0 1 0 -16.88 0zM1096.63 666.24 a7.24 7.24 0 1 0 14.48 0 a7.24 7.24 0 1 0 -14.48 0z" fill="rgba(110, 110, 110, 0.75)" fill-rule="nonzero"></path>
        <path d="M196.91 569.8L196.91 572.96L215.97 572.96L215.97 569.8zM210.38 571.38 a5.59 5.59 0 1 0 11.18 0 a5.59 5.59 0 1 0 -11.18 0zM192.92 593L191.71 595.91L200.26 599.45L201.47 596.54zM195.27 598 a5.59 5.59 0 1 0 11.18 0 a5.59 5.59 0 1 0 -11.18 0zM180.36 612.9L178.13 615.13L190.65 627.66L192.89 625.42zM186.18 626.54 a5.59 5.59 0 1 0 11.18 0 a5.59 5.59 0 1 0 -11.18 0zM161.14 626.48L158.23 627.69L166.36 647.31L169.27 646.11zM162.22 646.71 a5.59 5.59 0 1 0 11.18 0 a5.59 5.59 0 1 0 -11.18 0zM138.19 631.68L135.03 631.68L135.03 658.31L138.19 658.31zM131.02 658.31 a5.59 5.59 0 1 0 11.18 0 a5.59 5.59 0 1 0 -11.18 0zM115 627.69L112.08 626.48L105.89 641.41L108.81 642.62zM101.76 642.02 a5.59 5.59 0 1 0 11.18 0 a5.59 5.59 0 1 0 -11.18 0zM95.09 615.13L92.86 612.9L85.1 620.66L87.34 622.89zM80.63 621.77 a5.59 5.59 0 1 0 11.18 0 a5.59 5.59 0 1 0 -11.18 0zM81.51 595.91L80.3 593L67.83 598.16L69.04 601.08zM62.84 599.62 a5.59 5.59 0 1 0 11.18 0 a5.59 5.59 0 1 0 -11.18 0zM76.32 572.96L76.32 569.8L63.41 569.8L63.41 572.96zM57.82 571.38 a5.59 5.59 0 1 0 11.18 0 a5.59 5.59 0 1 0 -11.18 0zM80.3 549.77L81.51 546.85L57.92 537.08L56.71 540zM51.73 538.54 a5.59 5.59 0 1 0 11.18 0 a5.59 5.59 0 1 0 -11.18 0zM92.86 529.86L95.09 527.63L89.13 521.67L86.9 523.9zM82.43 522.78 a5.59 5.59 0 1 0 11.18 0 a5.59 5.59 0 1 0 -11.18 0zM112.08 516.28L115 515.07L109.86 502.66L106.94 503.87zM102.81 503.27 a5.59 5.59 0 1 0 11.18 0 a5.59 5.59 0 1 0 -11.18 0zM135.03 511.08L138.19 511.08L138.19 484.43L135.03 484.43zM131.02 484.43 a5.59 5.59 0 1 0 11.18 0 a5.59 5.59 0 1 0 -11.18 0zM158.23 515.07L161.14 516.28L170.9 492.74L167.98 491.53zM163.85 492.13 a5.59 5.59 0 1 0 11.18 0 a5.59 5.59 0 1 0 -11.18 0zM178.13 527.63L180.36 529.86L195.49 514.74L193.26 512.5zM188.78 513.62 a5.59 5.59 0 1 0 11.18 0 a5.59 5.59 0 1 0 -11.18 0zM191.71 546.85L192.92 549.77L217.42 539.62L216.22 536.7zM211.23 538.16 a5.59 5.59 0 1 0 11.18 0 a5.59 5.59 0 1 0 -11.18 0zM76.29 571.38 a60.32 60.32 0 1 0 120.64 0 a60.32 60.32 0 1 0 -120.64 0z" fill="rgba(137, 137, 137, 0.75)"></path>
        <path d="M94.79 614.84 A59.31679999999999 59.31679999999999 0 0 1 119.76 513.47M119.76 513.47 A120.63359999999999 120.63359999999999 0 0 0 94.79 614.84" fill="rgba(110, 110, 110, 0.75)" fill-rule="nonzero"></path>
        <path d="M154.75 622.74 a4.22 4.22 0 1 0 8.44 0 a4.22 4.22 0 1 0 -8.44 0zM179.55 565.3 a8.44 8.44 0 1 0 16.88 0 a8.44 8.44 0 1 0 -16.88 0zM98.58 533.03 a12.06 12.06 0 1 0 24.12 0 a12.06 12.06 0 1 0 -24.12 0zM147.85 540.42 a12.06 12.06 0 1 0 24.12 0 a12.06 12.06 0 1 0 -24.12 0zM134.73 595.24 a12.06 12.06 0 1 0 24.12 0 a12.06 12.06 0 1 0 -24.12 0zM93.97 604.59 a12.06 12.06 0 1 0 24.12 0 a12.06 12.06 0 1 0 -24.12 0zM81.82 554.72 a6.63 6.63 0 1 0 13.26 0 a6.63 6.63 0 1 0 -13.26 0zM170.69 609.95 a3.62 3.62 0 1 0 7.24 0 a3.62 3.62 0 1 0 -7.24 0zM135.21 557.05 a3.02 3.02 0 1 0 6.04 0 a3.02 3.02 0 1 0 -6.04 0zM76.93 574.92 a2.41 2.41 0 1 0 4.82 0 a2.41 2.41 0 1 0 -4.82 0z" fill="rgba(110, 110, 110, 0.75)" fill-rule="nonzero"></path>
        <path d="M374.7 1411.85L374.7 1415.01L387.5 1415.01L387.5 1411.85zM381.91 1413.43 a5.59 5.59 0 1 0 11.18 0 a5.59 5.59 0 1 0 -11.18 0zM370.71 1435.05L369.5 1437.96L387.11 1445.26L388.32 1442.34zM382.13 1443.8 a5.59 5.59 0 1 0 11.18 0 a5.59 5.59 0 1 0 -11.18 0zM358.15 1454.95L355.92 1457.18L368.39 1469.66L370.63 1467.42zM363.92 1468.54 a5.59 5.59 0 1 0 11.18 0 a5.59 5.59 0 1 0 -11.18 0zM338.94 1468.53L336.02 1469.74L347.35 1497.09L350.26 1495.88zM343.21 1496.48 a5.59 5.59 0 1 0 11.18 0 a5.59 5.59 0 1 0 -11.18 0zM315.98 1473.73L312.82 1473.73L312.82 1491.34L315.98 1491.34zM308.81 1491.34 a5.59 5.59 0 1 0 11.18 0 a5.59 5.59 0 1 0 -11.18 0zM292.79 1469.74L289.87 1468.53L283.21 1484.62L286.12 1485.83zM279.08 1485.22 a5.59 5.59 0 1 0 11.18 0 a5.59 5.59 0 1 0 -11.18 0zM272.88 1457.18L270.65 1454.95L251.71 1473.89L253.95 1476.12zM247.24 1475 a5.59 5.59 0 1 0 11.18 0 a5.59 5.59 0 1 0 -11.18 0zM259.3 1437.96L258.09 1435.05L237.4 1443.62L238.61 1446.54zM232.41 1445.08 a5.59 5.59 0 1 0 11.18 0 a5.59 5.59 0 1 0 -11.18 0zM254.11 1415.01L254.11 1411.85L246.61 1411.85L246.61 1415.01zM241.02 1413.43 a5.59 5.59 0 1 0 11.18 0 a5.59 5.59 0 1 0 -11.18 0zM258.09 1391.82L259.3 1388.9L234.61 1378.67L233.41 1381.59zM228.42 1380.13 a5.59 5.59 0 1 0 11.18 0 a5.59 5.59 0 1 0 -11.18 0zM270.65 1371.91L272.88 1369.68L253.29 1350.09L251.06 1352.32zM246.58 1351.2 a5.59 5.59 0 1 0 11.18 0 a5.59 5.59 0 1 0 -11.18 0zM289.87 1358.33L292.79 1357.12L281.6 1330.11L278.68 1331.32zM274.55 1330.71 a5.59 5.59 0 1 0 11.18 0 a5.59 5.59 0 1 0 -11.18 0zM312.82 1353.14L315.98 1353.14L315.98 1327.13L312.82 1327.13zM308.81 1327.13 a5.59 5.59 0 1 0 11.18 0 a5.59 5.59 0 1 0 -11.18 0zM336.02 1357.12L338.94 1358.33L347.91 1336.66L344.99 1335.46zM340.86 1336.06 a5.59 5.59 0 1 0 11.18 0 a5.59 5.59 0 1 0 -11.18 0zM355.92 1369.68L358.15 1371.91L366.93 1363.14L364.7 1360.9zM360.22 1362.02 a5.59 5.59 0 1 0 11.18 0 a5.59 5.59 0 1 0 -11.18 0zM369.5 1388.9L370.71 1391.82L393.95 1382.19L392.74 1379.27zM387.75 1380.73 a5.59 5.59 0 1 0 11.18 0 a5.59 5.59 0 1 0 -11.18 0zM254.08 1413.43 a60.32 60.32 0 1 0 120.64 0 a60.32 60.32 0 1 0 -120.64 0z" fill="rgba(137, 137, 137, 0.75)"></path>
        <path d="M256.33 1429.72 A59.31679999999999 59.31679999999999 0 0 1 329.21 1354.96M329.21 1354.96 A120.63359999999999 120.63359999999999 0 0 0 256.33 1429.72" fill="rgba(110, 110, 110, 0.75)" fill-rule="nonzero"></path>
        <path d="M314.45 1430.53 a12.06 12.06 0 1 0 24.12 0 a12.06 12.06 0 1 0 -24.12 0zM359.17 1423.96 a7.24 7.24 0 1 0 14.48 0 a7.24 7.24 0 1 0 -14.48 0zM289.69 1416.46 a7.84 7.84 0 1 0 15.68 0 a7.84 7.84 0 1 0 -15.68 0zM316.35 1466.25 a6.63 6.63 0 1 0 13.26 0 a6.63 6.63 0 1 0 -13.26 0zM279.8 1436.85 a4.22 4.22 0 1 0 8.44 0 a4.22 4.22 0 1 0 -8.44 0zM336.06 1404.28 a6.63 6.63 0 1 0 13.26 0 a6.63 6.63 0 1 0 -13.26 0zM314.76 1399.37 a4.83 4.83 0 1 0 9.66 0 a4.83 4.83 0 1 0 -9.66 0zM294.24 1465.11 a4.83 4.83 0 1 0 9.66 0 a4.83 4.83 0 1 0 -9.66 0zM269.3 1412.24 a4.22 4.22 0 1 0 8.44 0 a4.22 4.22 0 1 0 -8.44 0zM313.29 1373.19 a9.05 9.05 0 1 0 18.1 0 a9.05 9.05 0 1 0 -18.1 0z" fill="rgba(110, 110, 110, 0.75)" fill-rule="nonzero"></path>
        <path d="M866.98 1192.81L866.98 1199.12L924.39 1199.12L924.39 1192.81zM913.21 1195.97 a11.18 11.18 0 1 0 22.36 0 a11.18 11.18 0 1 0 -22.36 0zM859.01 1239.2L856.59 1245.03L878.94 1254.29L881.36 1248.45zM868.97 1251.37 a11.18 11.18 0 1 0 22.36 0 a11.18 11.18 0 1 0 -22.36 0zM833.89 1279L829.43 1283.47L854.12 1308.16L858.59 1303.7zM845.17 1305.93 a11.18 11.18 0 1 0 22.36 0 a11.18 11.18 0 1 0 -22.36 0zM795.46 1306.17L789.62 1308.59L807.25 1351.14L813.08 1348.72zM798.98 1349.93 a11.18 11.18 0 1 0 22.36 0 a11.18 11.18 0 1 0 -22.36 0zM749.55 1316.56L743.23 1316.56L743.23 1334.87L749.55 1334.87zM735.21 1334.87 a11.18 11.18 0 1 0 22.36 0 a11.18 11.18 0 1 0 -22.36 0zM703.16 1308.59L697.32 1306.17L680.32 1347.21L686.16 1349.63zM672.06 1348.42 a11.18 11.18 0 1 0 22.36 0 a11.18 11.18 0 1 0 -22.36 0zM663.35 1283.47L658.89 1279L628.48 1309.41L632.95 1313.88zM619.53 1311.64 a11.18 11.18 0 1 0 22.36 0 a11.18 11.18 0 1 0 -22.36 0zM636.19 1245.03L633.77 1239.2L583.66 1259.95L586.07 1265.79zM573.69 1262.87 a11.18 11.18 0 1 0 22.36 0 a11.18 11.18 0 1 0 -22.36 0zM625.8 1199.12L625.8 1192.81L598.36 1192.81L598.36 1199.12zM587.18 1195.97 a11.18 11.18 0 1 0 22.36 0 a11.18 11.18 0 1 0 -22.36 0zM633.77 1152.73L636.19 1146.9L618 1139.37L615.59 1145.2zM605.61 1142.29 a11.18 11.18 0 1 0 22.36 0 a11.18 11.18 0 1 0 -22.36 0zM658.89 1112.93L663.35 1108.46L643.84 1088.95L639.38 1093.42zM630.43 1091.19 a11.18 11.18 0 1 0 22.36 0 a11.18 11.18 0 1 0 -22.36 0zM697.32 1085.76L703.16 1083.34L690.62 1053.08L684.79 1055.5zM676.52 1054.29 a11.18 11.18 0 1 0 22.36 0 a11.18 11.18 0 1 0 -22.36 0zM743.23 1075.37L749.55 1075.37L749.55 1030.65L743.23 1030.65zM735.21 1030.65 a11.18 11.18 0 1 0 22.36 0 a11.18 11.18 0 1 0 -22.36 0zM789.62 1083.34L795.46 1085.76L814.47 1039.86L808.63 1037.45zM800.37 1038.65 a11.18 11.18 0 1 0 22.36 0 a11.18 11.18 0 1 0 -22.36 0zM829.43 1108.46L833.89 1112.93L865.31 1081.51L860.85 1077.04zM851.9 1079.28 a11.18 11.18 0 1 0 22.36 0 a11.18 11.18 0 1 0 -22.36 0zM856.59 1146.9L859.01 1152.73L893.43 1138.48L891.02 1132.64zM881.05 1135.56 a11.18 11.18 0 1 0 22.36 0 a11.18 11.18 0 1 0 -22.36 0zM625.76 1195.97 a120.63 120.63 0 1 0 241.26 0 a120.63 120.63 0 1 0 -241.26 0z" fill="rgba(137, 137, 137, 0.75)"></path>
        <path d="M767.28 1314.78 A119.63359999999999 119.63359999999999 0 0 1 632.97 1154.88M632.97 1154.88 A241.26719999999997 241.26719999999997 0 0 0 767.28 1314.78" fill="rgba(110, 110, 110, 0.75)" fill-rule="nonzero"></path>
        <path d="M639.64 1207.8 a24.13 24.13 0 1 0 48.26 0 a24.13 24.13 0 1 0 -48.26 0zM729.43 1279.61 a24.13 24.13 0 1 0 48.26 0 a24.13 24.13 0 1 0 -48.26 0zM710.4 1191.41 a16.89 16.89 0 1 0 33.78 0 a16.89 16.89 0 1 0 -33.78 0zM787.13 1147.65 a24.13 24.13 0 1 0 48.26 0 a24.13 24.13 0 1 0 -48.26 0zM794.81 1243.2 a24.13 24.13 0 1 0 48.26 0 a24.13 24.13 0 1 0 -48.26 0zM674.76 1103.11 a6.03 6.03 0 1 0 12.06 0 a6.03 6.03 0 1 0 -12.06 0zM745.44 1120.19 a12.06 12.06 0 1 0 24.12 0 a12.06 12.06 0 1 0 -24.12 0zM676.75 1259.05 a4.83 4.83 0 1 0 9.66 0 a4.83 4.83 0 1 0 -9.66 0zM851.16 1186.72 a7.24 7.24 0 1 0 14.48 0 a7.24 7.24 0 1 0 -14.48 0zM763.33 1224.94 a4.83 4.83 0 1 0 9.66 0 a4.83 4.83 0 1 0 -9.66 0z" fill="rgba(110, 110, 110, 0.75)" fill-rule="nonzero"></path>
        <path d="M1521.74 583.26L1521.74 586.42L1534.6 586.42L1534.6 583.26zM1529.01 584.84 a5.59 5.59 0 1 0 11.18 0 a5.59 5.59 0 1 0 -11.18 0zM1517.75 606.45L1516.54 609.37L1538.25 618.36L1539.46 615.45zM1533.27 616.9 a5.59 5.59 0 1 0 11.18 0 a5.59 5.59 0 1 0 -11.18 0zM1505.19 626.36L1502.96 628.59L1509 634.64L1511.24 632.4zM1504.53 633.52 a5.59 5.59 0 1 0 11.18 0 a5.59 5.59 0 1 0 -11.18 0zM1485.97 639.94L1483.05 641.15L1492.79 664.64L1495.7 663.43zM1488.66 664.04 a5.59 5.59 0 1 0 11.18 0 a5.59 5.59 0 1 0 -11.18 0zM1463.02 645.13L1459.86 645.13L1459.86 663.77L1463.02 663.77zM1455.85 663.77 a5.59 5.59 0 1 0 11.18 0 a5.59 5.59 0 1 0 -11.18 0zM1439.82 641.15L1436.91 639.94L1430.71 654.91L1433.62 656.11zM1426.58 655.51 a5.59 5.59 0 1 0 11.18 0 a5.59 5.59 0 1 0 -11.18 0zM1419.92 628.59L1417.69 626.36L1398.14 645.91L1400.37 648.14zM1393.66 647.02 a5.59 5.59 0 1 0 11.18 0 a5.59 5.59 0 1 0 -11.18 0zM1406.34 609.37L1405.13 606.45L1381.87 616.09L1383.07 619.01zM1376.88 617.55 a5.59 5.59 0 1 0 11.18 0 a5.59 5.59 0 1 0 -11.18 0zM1401.14 586.42L1401.14 583.26L1379.92 583.26L1379.92 586.42zM1374.33 584.84 a5.59 5.59 0 1 0 11.18 0 a5.59 5.59 0 1 0 -11.18 0zM1405.13 563.22L1406.34 560.3L1384.57 551.29L1383.36 554.21zM1378.38 552.75 a5.59 5.59 0 1 0 11.18 0 a5.59 5.59 0 1 0 -11.18 0zM1417.69 543.32L1419.92 541.09L1400.4 521.57L1398.17 523.8zM1393.7 522.69 a5.59 5.59 0 1 0 11.18 0 a5.59 5.59 0 1 0 -11.18 0zM1436.91 529.74L1439.82 528.53L1433.55 513.38L1430.63 514.59zM1426.5 513.99 a5.59 5.59 0 1 0 11.18 0 a5.59 5.59 0 1 0 -11.18 0zM1459.86 524.54L1463.02 524.54L1463.02 500.11L1459.86 500.11zM1455.85 500.11 a5.59 5.59 0 1 0 11.18 0 a5.59 5.59 0 1 0 -11.18 0zM1483.05 528.53L1485.97 529.74L1494.25 509.74L1491.34 508.53zM1487.2 509.14 a5.59 5.59 0 1 0 11.18 0 a5.59 5.59 0 1 0 -11.18 0zM1502.96 541.09L1505.19 543.32L1523.28 525.23L1521.05 523zM1516.57 524.11 a5.59 5.59 0 1 0 11.18 0 a5.59 5.59 0 1 0 -11.18 0zM1516.54 560.3L1517.75 563.22L1524.97 560.23L1523.76 557.32zM1518.77 558.77 a5.59 5.59 0 1 0 11.18 0 a5.59 5.59 0 1 0 -11.18 0zM1401.12 584.84 a60.32 60.32 0 1 0 120.64 0 a60.32 60.32 0 1 0 -120.64 0z" fill="rgba(137, 137, 137, 0.75)"></path>
        <path d="M1445.3 526.72 A59.31679999999999 59.31679999999999 0 0 1 1519.87 599.8M1519.87 599.8 A120.63359999999999 120.63359999999999 0 0 0 1445.3 526.72" fill="rgba(110, 110, 110, 0.75)" fill-rule="nonzero"></path>
        <path d="M1436.35 557.91 a12.06 12.06 0 1 0 24.12 0 a12.06 12.06 0 1 0 -24.12 0zM1447.54 631.84 a12.06 12.06 0 1 0 24.12 0 a12.06 12.06 0 1 0 -24.12 0zM1465.6 579.85 a11.46 11.46 0 1 0 22.92 0 a11.46 11.46 0 1 0 -22.92 0zM1411.51 598.27 a12.06 12.06 0 1 0 24.12 0 a12.06 12.06 0 1 0 -24.12 0zM1468.24 532.6 a6.03 6.03 0 1 0 12.06 0 a6.03 6.03 0 1 0 -12.06 0zM1487.88 612.19 a12.06 12.06 0 1 0 24.12 0 a12.06 12.06 0 1 0 -24.12 0zM1412.22 552.26 a4.83 4.83 0 1 0 9.66 0 a4.83 4.83 0 1 0 -9.66 0zM1514.2 580.94 a3.62 3.62 0 1 0 7.24 0 a3.62 3.62 0 1 0 -7.24 0zM1468.23 605.3 a2.41 2.41 0 1 0 4.82 0 a2.41 2.41 0 1 0 -4.82 0zM1424.61 631.25 a2.41 2.41 0 1 0 4.82 0 a2.41 2.41 0 1 0 -4.82 0z" fill="rgba(110, 110, 110, 0.75)" fill-rule="nonzero"></path>
        <path d="M456.24 2110.58L456.24 2116.9L497.7 2116.9L497.7 2110.58zM486.52 2113.74 a11.18 11.18 0 1 0 22.36 0 a11.18 11.18 0 1 0 -22.36 0zM448.26 2156.97L445.85 2162.81L471.51 2173.44L473.93 2167.6zM461.54 2170.52 a11.18 11.18 0 1 0 22.36 0 a11.18 11.18 0 1 0 -22.36 0zM423.15 2196.78L418.68 2201.24L459.23 2241.79L463.69 2237.32zM450.28 2239.56 a11.18 11.18 0 1 0 22.36 0 a11.18 11.18 0 1 0 -22.36 0zM384.71 2223.94L378.87 2226.36L387.38 2246.89L393.21 2244.47zM379.11 2245.68 a11.18 11.18 0 1 0 22.36 0 a11.18 11.18 0 1 0 -22.36 0zM338.8 2234.33L332.48 2234.33L332.48 2284.3L338.8 2284.3zM324.46 2284.3 a11.18 11.18 0 1 0 22.36 0 a11.18 11.18 0 1 0 -22.36 0zM292.41 2226.36L286.58 2223.94L275.61 2250.42L281.44 2252.84zM267.35 2251.63 a11.18 11.18 0 1 0 22.36 0 a11.18 11.18 0 1 0 -22.36 0zM252.6 2201.24L248.14 2196.78L206.03 2238.89L210.5 2243.35zM197.08 2241.12 a11.18 11.18 0 1 0 22.36 0 a11.18 11.18 0 1 0 -22.36 0zM225.44 2162.81L223.02 2156.97L183.97 2173.15L186.39 2178.98zM174 2176.06 a11.18 11.18 0 1 0 22.36 0 a11.18 11.18 0 1 0 -22.36 0zM215.05 2116.9L215.05 2110.58L197.47 2110.58L197.47 2116.9zM186.29 2113.74 a11.18 11.18 0 1 0 22.36 0 a11.18 11.18 0 1 0 -22.36 0zM223.02 2070.51L225.44 2064.67L207.87 2057.39L205.45 2063.23zM195.48 2060.31 a11.18 11.18 0 1 0 22.36 0 a11.18 11.18 0 1 0 -22.36 0zM248.14 2030.7L252.6 2026.23L232.59 2006.22L228.13 2010.69zM219.18 2008.46 a11.18 11.18 0 1 0 22.36 0 a11.18 11.18 0 1 0 -22.36 0zM286.58 2003.54L292.41 2001.12L276.34 1962.32L270.5 1964.73zM262.24 1963.52 a11.18 11.18 0 1 0 22.36 0 a11.18 11.18 0 1 0 -22.36 0zM332.48 1993.15L338.8 1993.15L338.8 1936.42L332.48 1936.42zM324.46 1936.42 a11.18 11.18 0 1 0 22.36 0 a11.18 11.18 0 1 0 -22.36 0zM378.87 2001.12L384.71 2003.54L406.51 1950.89L400.68 1948.48zM392.42 1949.68 a11.18 11.18 0 1 0 22.36 0 a11.18 11.18 0 1 0 -22.36 0zM418.68 2026.23L423.15 2030.7L436.84 2017L432.38 2012.54zM423.43 2014.77 a11.18 11.18 0 1 0 22.36 0 a11.18 11.18 0 1 0 -22.36 0zM445.85 2064.67L448.26 2070.51L469.37 2061.77L466.95 2055.93zM456.98 2058.85 a11.18 11.18 0 1 0 22.36 0 a11.18 11.18 0 1 0 -22.36 0zM215.01 2113.74 a120.63 120.63 0 1 0 241.26 0 a120.63 120.63 0 1 0 -241.26 0z" fill="rgba(137, 137, 137, 0.75)"></path>
        <path d="M387.22 2004.69 A119.63359999999999 119.63359999999999 0 0 1 404.51 2212.79M404.51 2212.79 A241.26719999999997 241.26719999999997 0 0 0 387.22 2004.69" fill="rgba(110, 110, 110, 0.75)" fill-rule="nonzero"></path>
        <path d="M404.71 2059.78 a18.09 18.09 0 1 0 36.18 0 a18.09 18.09 0 1 0 -36.18 0zM326.48 2193.83 a24.13 24.13 0 1 0 48.26 0 a24.13 24.13 0 1 0 -48.26 0zM267.13 2021.63 a12.06 12.06 0 1 0 24.12 0 a12.06 12.06 0 1 0 -24.12 0zM245.34 2127.55 a24.13 24.13 0 1 0 48.26 0 a24.13 24.13 0 1 0 -48.26 0zM407.73 2169.59 a15.68 15.68 0 1 0 31.36 0 a15.68 15.68 0 1 0 -31.36 0zM310.91 2096.23 a21.71 21.71 0 1 0 43.42 0 a21.71 21.71 0 1 0 -43.42 0zM243.55 2178.14 a6.03 6.03 0 1 0 12.06 0 a6.03 6.03 0 1 0 -12.06 0zM369.67 2128.71 a13.27 13.27 0 1 0 26.54 0 a13.27 13.27 0 1 0 -26.54 0zM426.91 2123.1 a7.24 7.24 0 1 0 14.48 0 a7.24 7.24 0 1 0 -14.48 0zM224.03 2077.16 a12.06 12.06 0 1 0 24.12 0 a12.06 12.06 0 1 0 -24.12 0z" fill="rgba(110, 110, 110, 0.75)" fill-rule="nonzero"></path>
    </g>
    <defs>
        <mask id="SvgjsMask1028">
            <rect width="1560" height="2440" fill="#ffffff"></rect>
        </mask>
    </defs>
</svg>