<!-- <svg xmlns="http://www.w3.org/2000/svg" version="1.1" xmlns:xlink="http://www.w3.org/1999/xlink" xmlns:svgjs="http://svgjs.dev/svgjs" width="1560" height="2440" preserveAspectRatio="none" viewBox="0 0 1560 2440">
    <g mask="url(&quot;#SvgjsMask1805&quot;)" fill="none">
        <rect width="1560" height="2440" x="0" y="0" fill="url(&quot;#SvgjsLinearGradient1806&quot;)"></rect>
        <path d="M1071.87 735.4L1071.87 741.72L1087.35 741.72L1087.35 735.4zM1076.17 738.56 a11.18 11.18 0 1 0 22.36 0 a11.18 11.18 0 1 0 -22.36 0zM1063.9 781.79L1061.48 787.63L1080.1 795.34L1082.52 789.5zM1070.13 792.42 a11.18 11.18 0 1 0 22.36 0 a11.18 11.18 0 1 0 -22.36 0zM1038.78 821.6L1034.32 826.07L1046.68 838.43L1051.14 833.96zM1037.73 836.19 a11.18 11.18 0 1 0 22.36 0 a11.18 11.18 0 1 0 -22.36 0zM1000.34 848.77L994.51 851.18L1015.39 901.59L1021.22 899.17zM1007.13 900.38 a11.18 11.18 0 1 0 22.36 0 a11.18 11.18 0 1 0 -22.36 0zM954.44 859.15L948.12 859.15L948.12 900.05L954.44 900.05zM940.1 900.05 a11.18 11.18 0 1 0 22.36 0 a11.18 11.18 0 1 0 -22.36 0zM908.05 851.18L902.21 848.77L895.81 864.23L901.64 866.65zM887.54 865.44 a11.18 11.18 0 1 0 22.36 0 a11.18 11.18 0 1 0 -22.36 0zM868.24 826.07L863.77 821.6L834.56 850.82L839.02 855.28zM825.61 853.05 a11.18 11.18 0 1 0 22.36 0 a11.18 11.18 0 1 0 -22.36 0zM841.07 787.63L838.66 781.79L805.71 795.44L808.13 801.27zM795.74 798.36 a11.18 11.18 0 1 0 22.36 0 a11.18 11.18 0 1 0 -22.36 0zM830.69 741.72L830.69 735.4L789.27 735.4L789.27 741.72zM778.09 738.56 a11.18 11.18 0 1 0 22.36 0 a11.18 11.18 0 1 0 -22.36 0zM838.66 695.33L841.07 689.5L815.55 678.92L813.13 684.76zM803.16 681.84 a11.18 11.18 0 1 0 22.36 0 a11.18 11.18 0 1 0 -22.36 0zM863.77 655.52L868.24 651.06L826.73 609.55L822.27 614.02zM813.32 611.78 a11.18 11.18 0 1 0 22.36 0 a11.18 11.18 0 1 0 -22.36 0zM902.21 628.36L908.05 625.94L887.62 576.61L881.78 579.03zM873.52 577.82 a11.18 11.18 0 1 0 22.36 0 a11.18 11.18 0 1 0 -22.36 0zM948.12 617.97L954.44 617.97L954.44 573.74L948.12 573.74zM940.1 573.74 a11.18 11.18 0 1 0 22.36 0 a11.18 11.18 0 1 0 -22.36 0zM994.51 625.94L1000.34 628.36L1014.84 593.35L1009.01 590.93zM1000.75 592.14 a11.18 11.18 0 1 0 22.36 0 a11.18 11.18 0 1 0 -22.36 0zM1034.32 651.06L1038.78 655.52L1061.31 632.99L1056.85 628.53zM1047.9 630.76 a11.18 11.18 0 1 0 22.36 0 a11.18 11.18 0 1 0 -22.36 0zM1061.48 689.5L1063.9 695.33L1089.94 684.54L1087.53 678.71zM1077.55 681.63 a11.18 11.18 0 1 0 22.36 0 a11.18 11.18 0 1 0 -22.36 0zM830.65 738.56 a120.63 120.63 0 1 0 241.26 0 a120.63 120.63 0 1 0 -241.26 0z" fill="rgba(72, 143, 219, 0.18)"></path>
        <path d="M861.52 657.97 A119.63359999999999 119.63359999999999 0 0 1 1065.88 700.88M1065.88 700.88 A241.26719999999997 241.26719999999997 0 0 0 861.52 657.97" fill="rgba(38, 114, 195, 0.18)" fill-rule="nonzero"></path>
        <path d="M922.83 774.77 a24.13 24.13 0 1 0 48.26 0 a24.13 24.13 0 1 0 -48.26 0zM895.57 808.41 a7.24 7.24 0 1 0 14.48 0 a7.24 7.24 0 1 0 -14.48 0zM1000.58 689.77 a24.13 24.13 0 1 0 48.26 0 a24.13 24.13 0 1 0 -48.26 0zM1019.29 762.84 a24.13 24.13 0 1 0 48.26 0 a24.13 24.13 0 1 0 -48.26 0zM837.28 702.13 a6.03 6.03 0 1 0 12.06 0 a6.03 6.03 0 1 0 -12.06 0zM929.53 652.5 a24.13 24.13 0 1 0 48.26 0 a24.13 24.13 0 1 0 -48.26 0zM890.02 666.42 a8.44 8.44 0 1 0 16.88 0 a8.44 8.44 0 1 0 -16.88 0zM836.62 769.24 a24.13 24.13 0 1 0 48.26 0 a24.13 24.13 0 1 0 -48.26 0zM896.96 713.14 a15.68 15.68 0 1 0 31.36 0 a15.68 15.68 0 1 0 -31.36 0zM952.97 850.49 a7.24 7.24 0 1 0 14.48 0 a7.24 7.24 0 1 0 -14.48 0z" fill="rgba(38, 114, 195, 0.18)" fill-rule="nonzero"></path>
        <path d="M1247.86 194.75L1247.86 201.07L1274.26 201.07L1274.26 194.75zM1263.08 197.91 a11.18 11.18 0 1 0 22.36 0 a11.18 11.18 0 1 0 -22.36 0zM1239.89 241.14L1237.47 246.97L1264.7 258.25L1267.12 252.42zM1254.73 255.33 a11.18 11.18 0 1 0 22.36 0 a11.18 11.18 0 1 0 -22.36 0zM1214.77 280.95L1210.31 285.41L1233.98 309.09L1238.45 304.62zM1225.03 306.85 a11.18 11.18 0 1 0 22.36 0 a11.18 11.18 0 1 0 -22.36 0zM1176.33 308.11L1170.5 310.53L1179.06 331.19L1184.89 328.77zM1170.79 329.98 a11.18 11.18 0 1 0 22.36 0 a11.18 11.18 0 1 0 -22.36 0zM1130.43 318.5L1124.11 318.5L1124.11 358.73L1130.43 358.73zM1116.09 358.73 a11.18 11.18 0 1 0 22.36 0 a11.18 11.18 0 1 0 -22.36 0zM1084.04 310.53L1078.2 308.11L1069.01 330.29L1074.85 332.71zM1060.75 331.5 a11.18 11.18 0 1 0 22.36 0 a11.18 11.18 0 1 0 -22.36 0zM1044.23 285.41L1039.76 280.95L1012.09 308.61L1016.56 313.08zM1003.15 310.85 a11.18 11.18 0 1 0 22.36 0 a11.18 11.18 0 1 0 -22.36 0zM1017.06 246.97L1014.65 241.14L971.68 258.94L974.09 264.77zM961.71 261.85 a11.18 11.18 0 1 0 22.36 0 a11.18 11.18 0 1 0 -22.36 0zM1006.68 201.07L1006.68 194.75L975.57 194.75L975.57 201.07zM964.39 197.91 a11.18 11.18 0 1 0 22.36 0 a11.18 11.18 0 1 0 -22.36 0zM1014.65 154.68L1017.06 148.84L985.04 135.58L982.63 141.41zM972.65 138.49 a11.18 11.18 0 1 0 22.36 0 a11.18 11.18 0 1 0 -22.36 0zM1039.76 114.87L1044.23 110.4L1021.14 87.32L1016.68 91.78zM1007.73 89.55 a11.18 11.18 0 1 0 22.36 0 a11.18 11.18 0 1 0 -22.36 0zM1078.2 87.7L1084.04 85.29L1069.28 49.67L1063.45 52.09zM1055.19 50.88 a11.18 11.18 0 1 0 22.36 0 a11.18 11.18 0 1 0 -22.36 0zM1124.11 77.31L1130.43 77.31L1130.43 42.7L1124.11 42.7zM1116.09 42.7 a11.18 11.18 0 1 0 22.36 0 a11.18 11.18 0 1 0 -22.36 0zM1170.5 85.29L1176.33 87.7L1194.77 43.2L1188.93 40.78zM1180.67 41.99 a11.18 11.18 0 1 0 22.36 0 a11.18 11.18 0 1 0 -22.36 0zM1210.31 110.4L1214.77 114.87L1233.14 96.5L1228.68 92.03zM1219.73 94.26 a11.18 11.18 0 1 0 22.36 0 a11.18 11.18 0 1 0 -22.36 0zM1237.47 148.84L1239.89 154.68L1257 147.59L1254.58 141.75zM1244.61 144.67 a11.18 11.18 0 1 0 22.36 0 a11.18 11.18 0 1 0 -22.36 0zM1006.64 197.91 a120.63 120.63 0 1 0 241.26 0 a120.63 120.63 0 1 0 -241.26 0z" fill="rgba(72, 143, 219, 0.18)"></path>
        <path d="M1150.31 316.32 A119.63359999999999 119.63359999999999 0 0 1 1013.12 158.89M1013.12 158.89 A241.26719999999997 241.26719999999997 0 0 0 1150.31 316.32" fill="rgba(38, 114, 195, 0.18)" fill-rule="nonzero"></path>
        <path d="M1086.47 110.88 a24.13 24.13 0 1 0 48.26 0 a24.13 24.13 0 1 0 -48.26 0zM1147.92 202.39 a24.13 24.13 0 1 0 48.26 0 a24.13 24.13 0 1 0 -48.26 0zM1059.07 208.18 a24.13 24.13 0 1 0 48.26 0 a24.13 24.13 0 1 0 -48.26 0zM1207.89 163.71 a14.48 14.48 0 1 0 28.96 0 a14.48 14.48 0 1 0 -28.96 0zM1182.51 133.47 a6.03 6.03 0 1 0 12.06 0 a6.03 6.03 0 1 0 -12.06 0zM1027.49 168.25 a10.86 10.86 0 1 0 21.72 0 a10.86 10.86 0 1 0 -21.72 0zM1127.61 284.93 a24.13 24.13 0 1 0 48.26 0 a24.13 24.13 0 1 0 -48.26 0zM1042.23 272.87 a19.3 19.3 0 1 0 38.6 0 a19.3 19.3 0 1 0 -38.6 0zM1210.54 234.75 a9.65 9.65 0 1 0 19.3 0 a9.65 9.65 0 1 0 -19.3 0zM1010.98 213.54 a12.06 12.06 0 1 0 24.12 0 a12.06 12.06 0 1 0 -24.12 0z" fill="rgba(38, 114, 195, 0.18)" fill-rule="nonzero"></path>
        <path d="M1420.63 1112.42L1420.63 1118.73L1446.59 1118.73L1446.59 1112.42zM1435.41 1115.58 a11.18 11.18 0 1 0 22.36 0 a11.18 11.18 0 1 0 -22.36 0zM1412.66 1158.81L1410.24 1164.64L1438.19 1176.22L1440.61 1170.38zM1428.22 1173.3 a11.18 11.18 0 1 0 22.36 0 a11.18 11.18 0 1 0 -22.36 0zM1387.54 1198.61L1383.08 1203.08L1415.18 1235.18L1419.65 1230.72zM1406.23 1232.95 a11.18 11.18 0 1 0 22.36 0 a11.18 11.18 0 1 0 -22.36 0zM1349.11 1225.78L1343.27 1228.2L1350.73 1246.19L1356.56 1243.78zM1342.46 1244.99 a11.18 11.18 0 1 0 22.36 0 a11.18 11.18 0 1 0 -22.36 0zM1303.2 1236.17L1296.88 1236.17L1296.88 1277.95L1303.2 1277.95zM1288.86 1277.95 a11.18 11.18 0 1 0 22.36 0 a11.18 11.18 0 1 0 -22.36 0zM1256.81 1228.2L1250.97 1225.78L1240.94 1249.99L1246.78 1252.41zM1232.68 1251.2 a11.18 11.18 0 1 0 22.36 0 a11.18 11.18 0 1 0 -22.36 0zM1217 1203.08L1212.54 1198.61L1188.33 1222.82L1192.8 1227.28zM1179.38 1225.05 a11.18 11.18 0 1 0 22.36 0 a11.18 11.18 0 1 0 -22.36 0zM1189.84 1164.64L1187.42 1158.81L1139.18 1178.79L1141.6 1184.62zM1129.21 1181.7 a11.18 11.18 0 1 0 22.36 0 a11.18 11.18 0 1 0 -22.36 0zM1179.45 1118.73L1179.45 1112.42L1161.95 1112.42L1161.95 1118.73zM1150.77 1115.58 a11.18 11.18 0 1 0 22.36 0 a11.18 11.18 0 1 0 -22.36 0zM1187.42 1072.34L1189.84 1066.51L1141.77 1046.6L1139.35 1052.43zM1129.38 1049.52 a11.18 11.18 0 1 0 22.36 0 a11.18 11.18 0 1 0 -22.36 0zM1212.54 1032.54L1217 1028.07L1204.55 1015.62L1200.08 1020.08zM1191.14 1017.85 a11.18 11.18 0 1 0 22.36 0 a11.18 11.18 0 1 0 -22.36 0zM1250.97 1005.37L1256.81 1002.95L1235.06 950.46L1229.23 952.88zM1220.97 951.67 a11.18 11.18 0 1 0 22.36 0 a11.18 11.18 0 1 0 -22.36 0zM1296.88 994.98L1303.2 994.98L1303.2 936.97L1296.88 936.97zM1288.86 936.97 a11.18 11.18 0 1 0 22.36 0 a11.18 11.18 0 1 0 -22.36 0zM1343.27 1002.95L1349.11 1005.37L1362.73 972.49L1356.89 970.07zM1348.63 971.28 a11.18 11.18 0 1 0 22.36 0 a11.18 11.18 0 1 0 -22.36 0zM1383.08 1028.07L1387.54 1032.54L1407.9 1012.18L1403.44 1007.71zM1394.49 1009.95 a11.18 11.18 0 1 0 22.36 0 a11.18 11.18 0 1 0 -22.36 0zM1410.24 1066.51L1412.66 1072.34L1462.9 1051.53L1460.48 1045.7zM1450.51 1048.62 a11.18 11.18 0 1 0 22.36 0 a11.18 11.18 0 1 0 -22.36 0zM1179.41 1115.58 a120.63 120.63 0 1 0 241.26 0 a120.63 120.63 0 1 0 -241.26 0z" fill="rgba(72, 143, 219, 0.18)"></path>
        <path d="M1239.89 1220.14 A119.63359999999999 119.63359999999999 0 0 1 1239.34 1011.33M1239.34 1011.33 A241.26719999999997 241.26719999999997 0 0 0 1239.89 1220.14" fill="rgba(38, 114, 195, 0.18)" fill-rule="nonzero"></path>
        <path d="M1226.57 1039.59 a24.13 24.13 0 1 0 48.26 0 a24.13 24.13 0 1 0 -48.26 0zM1246.67 1169.69 a24.13 24.13 0 1 0 48.26 0 a24.13 24.13 0 1 0 -48.26 0zM1205.11 1096.1 a15.68 15.68 0 1 0 31.36 0 a15.68 15.68 0 1 0 -31.36 0zM1207.91 1144.84 a8.44 8.44 0 1 0 16.88 0 a8.44 8.44 0 1 0 -16.88 0zM1333.6 1205.8 a16.89 16.89 0 1 0 33.78 0 a16.89 16.89 0 1 0 -33.78 0zM1390.47 1069.01 a9.65 9.65 0 1 0 19.3 0 a9.65 9.65 0 1 0 -19.3 0zM1369.33 1031.96 a7.24 7.24 0 1 0 14.48 0 a7.24 7.24 0 1 0 -14.48 0zM1405 1139.11 a6.03 6.03 0 1 0 12.06 0 a6.03 6.03 0 1 0 -12.06 0zM1267.23 1089.34 a4.83 4.83 0 1 0 9.66 0 a4.83 4.83 0 1 0 -9.66 0zM1298.28 1011.89 a15.68 15.68 0 1 0 31.36 0 a15.68 15.68 0 1 0 -31.36 0z" fill="rgba(38, 114, 195, 0.18)" fill-rule="nonzero"></path>
        <path d="M1421.55 656.15L1421.55 659.31L1444.97 659.31L1444.97 656.15zM1439.38 657.73 a5.59 5.59 0 1 0 11.18 0 a5.59 5.59 0 1 0 -11.18 0zM1417.56 679.35L1416.35 682.27L1432.28 688.86L1433.49 685.95zM1427.3 687.41 a5.59 5.59 0 1 0 11.18 0 a5.59 5.59 0 1 0 -11.18 0zM1405 699.25L1402.77 701.49L1409.73 708.44L1411.96 706.21zM1405.26 707.33 a5.59 5.59 0 1 0 11.18 0 a5.59 5.59 0 1 0 -11.18 0zM1385.78 712.84L1382.87 714.04L1391.79 735.58L1394.71 734.37zM1387.66 734.98 a5.59 5.59 0 1 0 11.18 0 a5.59 5.59 0 1 0 -11.18 0zM1362.83 718.03L1359.67 718.03L1359.67 728.99L1362.83 728.99zM1355.66 728.99 a5.59 5.59 0 1 0 11.18 0 a5.59 5.59 0 1 0 -11.18 0zM1339.64 714.04L1336.72 712.84L1329.05 731.36L1331.96 732.57zM1324.91 731.96 a5.59 5.59 0 1 0 11.18 0 a5.59 5.59 0 1 0 -11.18 0zM1319.73 701.49L1317.5 699.25L1308.58 708.17L1310.82 710.4zM1304.11 709.29 a5.59 5.59 0 1 0 11.18 0 a5.59 5.59 0 1 0 -11.18 0zM1306.15 682.27L1304.94 679.35L1279.75 689.78L1280.96 692.7zM1274.76 691.24 a5.59 5.59 0 1 0 11.18 0 a5.59 5.59 0 1 0 -11.18 0zM1300.96 659.31L1300.96 656.15L1287.16 656.15L1287.16 659.31zM1281.57 657.73 a5.59 5.59 0 1 0 11.18 0 a5.59 5.59 0 1 0 -11.18 0zM1304.94 636.12L1306.15 633.2L1297.17 629.48L1295.96 632.4zM1290.98 630.94 a5.59 5.59 0 1 0 11.18 0 a5.59 5.59 0 1 0 -11.18 0zM1317.5 616.21L1319.73 613.98L1309.67 603.92L1307.44 606.15zM1302.96 605.04 a5.59 5.59 0 1 0 11.18 0 a5.59 5.59 0 1 0 -11.18 0zM1336.72 602.63L1339.64 601.42L1329.33 576.54L1326.41 577.75zM1322.28 577.15 a5.59 5.59 0 1 0 11.18 0 a5.59 5.59 0 1 0 -11.18 0zM1359.67 597.44L1362.83 597.44L1362.83 567.8L1359.67 567.8zM1355.66 567.8 a5.59 5.59 0 1 0 11.18 0 a5.59 5.59 0 1 0 -11.18 0zM1382.87 601.42L1385.78 602.63L1394.7 581.1L1391.78 579.9zM1387.65 580.5 a5.59 5.59 0 1 0 11.18 0 a5.59 5.59 0 1 0 -11.18 0zM1402.77 613.98L1405 616.21L1426.08 595.14L1423.85 592.9zM1419.38 594.02 a5.59 5.59 0 1 0 11.18 0 a5.59 5.59 0 1 0 -11.18 0zM1416.35 633.2L1417.56 636.12L1427.38 632.05L1426.17 629.13zM1421.19 630.59 a5.59 5.59 0 1 0 11.18 0 a5.59 5.59 0 1 0 -11.18 0zM1300.93 657.73 a60.32 60.32 0 1 0 120.64 0 a60.32 60.32 0 1 0 -120.64 0z" fill="rgba(72, 143, 219, 0.18)"></path>
        <path d="M1324.07 705.22 A59.31679999999999 59.31679999999999 0 0 1 1338.6 601.83M1338.6 601.83 A120.63359999999999 120.63359999999999 0 0 0 1324.07 705.22" fill="rgba(38, 114, 195, 0.18)" fill-rule="nonzero"></path>
        <path d="M1382.35 685.07 a12.06 12.06 0 1 0 24.12 0 a12.06 12.06 0 1 0 -24.12 0zM1353.02 641.8 a12.06 12.06 0 1 0 24.12 0 a12.06 12.06 0 1 0 -24.12 0zM1317.95 632.72 a12.06 12.06 0 1 0 24.12 0 a12.06 12.06 0 1 0 -24.12 0zM1352.26 610.84 a7.24 7.24 0 1 0 14.48 0 a7.24 7.24 0 1 0 -14.48 0zM1319.98 675.91 a12.06 12.06 0 1 0 24.12 0 a12.06 12.06 0 1 0 -24.12 0zM1386.86 629.33 a7.84 7.84 0 1 0 15.68 0 a7.84 7.84 0 1 0 -15.68 0zM1408.65 662.64 a5.43 5.43 0 1 0 10.86 0 a5.43 5.43 0 1 0 -10.86 0zM1356.69 675.94 a3.02 3.02 0 1 0 6.04 0 a3.02 3.02 0 1 0 -6.04 0zM1356.06 705.46 a10.25 10.25 0 1 0 20.5 0 a10.25 10.25 0 1 0 -20.5 0zM1301.18 657.7 a2.41 2.41 0 1 0 4.82 0 a2.41 2.41 0 1 0 -4.82 0z" fill="rgba(38, 114, 195, 0.18)" fill-rule="nonzero"></path>
        <path d="M399.33 519.24L399.33 525.56L428.91 525.56L428.91 519.24zM417.73 522.4 a11.18 11.18 0 1 0 22.36 0 a11.18 11.18 0 1 0 -22.36 0zM391.36 565.63L388.94 571.46L417.23 583.18L419.64 577.35zM407.26 580.26 a11.18 11.18 0 1 0 22.36 0 a11.18 11.18 0 1 0 -22.36 0zM366.24 605.44L361.77 609.9L385.07 633.19L389.53 628.73zM376.12 630.96 a11.18 11.18 0 1 0 22.36 0 a11.18 11.18 0 1 0 -22.36 0zM327.8 632.6L321.97 635.02L342.72 685.13L348.56 682.71zM334.46 683.92 a11.18 11.18 0 1 0 22.36 0 a11.18 11.18 0 1 0 -22.36 0zM281.89 642.99L275.58 642.99L275.58 659.02L281.89 659.02zM267.55 659.02 a11.18 11.18 0 1 0 22.36 0 a11.18 11.18 0 1 0 -22.36 0zM235.5 635.02L229.67 632.6L207.59 685.9L213.43 688.32zM199.33 687.11 a11.18 11.18 0 1 0 22.36 0 a11.18 11.18 0 1 0 -22.36 0zM195.7 609.9L191.23 605.44L166.99 629.68L171.46 634.14zM158.04 631.91 a11.18 11.18 0 1 0 22.36 0 a11.18 11.18 0 1 0 -22.36 0zM168.53 571.46L166.11 565.63L150.19 572.22L152.61 578.06zM140.22 575.14 a11.18 11.18 0 1 0 22.36 0 a11.18 11.18 0 1 0 -22.36 0zM158.14 525.56L158.14 519.24L105.26 519.24L105.26 525.56zM94.08 522.4 a11.18 11.18 0 1 0 22.36 0 a11.18 11.18 0 1 0 -22.36 0zM166.11 479.17L168.53 473.33L115.16 451.22L112.74 457.06zM102.77 454.14 a11.18 11.18 0 1 0 22.36 0 a11.18 11.18 0 1 0 -22.36 0zM191.23 439.36L195.7 434.89L168.59 407.79L164.13 412.26zM155.18 410.02 a11.18 11.18 0 1 0 22.36 0 a11.18 11.18 0 1 0 -22.36 0zM229.67 412.19L235.5 409.78L213.54 356.76L207.71 359.18zM199.45 357.97 a11.18 11.18 0 1 0 22.36 0 a11.18 11.18 0 1 0 -22.36 0zM275.58 401.81L281.89 401.81L281.89 353.2L275.58 353.2zM267.55 353.2 a11.18 11.18 0 1 0 22.36 0 a11.18 11.18 0 1 0 -22.36 0zM321.97 409.78L327.8 412.19L348.87 361.32L343.04 358.91zM334.77 360.12 a11.18 11.18 0 1 0 22.36 0 a11.18 11.18 0 1 0 -22.36 0zM361.77 434.89L366.24 439.36L392.01 413.59L387.54 409.13zM378.59 411.36 a11.18 11.18 0 1 0 22.36 0 a11.18 11.18 0 1 0 -22.36 0zM388.94 473.33L391.36 479.17L412.35 470.47L409.93 464.64zM399.96 467.55 a11.18 11.18 0 1 0 22.36 0 a11.18 11.18 0 1 0 -22.36 0zM158.1 522.4 a120.63 120.63 0 1 0 241.26 0 a120.63 120.63 0 1 0 -241.26 0z" fill="rgba(72, 143, 219, 0.18)"></path>
        <path d="M355.09 615.79 A119.63359999999999 119.63359999999999 0 0 1 159.72 542.08M159.72 542.08 A241.26719999999997 241.26719999999997 0 0 0 355.09 615.79" fill="rgba(38, 114, 195, 0.18)" fill-rule="nonzero"></path>
        <path d="M247.75 552.58 a24.13 24.13 0 1 0 48.26 0 a24.13 24.13 0 1 0 -48.26 0zM315.56 528.49 a15.68 15.68 0 1 0 31.36 0 a15.68 15.68 0 1 0 -31.36 0zM299.43 474.9 a15.68 15.68 0 1 0 31.36 0 a15.68 15.68 0 1 0 -31.36 0zM185.93 501.56 a24.13 24.13 0 1 0 48.26 0 a24.13 24.13 0 1 0 -48.26 0zM285.98 603.76 a6.03 6.03 0 1 0 12.06 0 a6.03 6.03 0 1 0 -12.06 0zM239.76 421.55 a16.89 16.89 0 1 0 33.78 0 a16.89 16.89 0 1 0 -33.78 0zM320.93 623.12 a7.24 7.24 0 1 0 14.48 0 a7.24 7.24 0 1 0 -14.48 0zM387.22 544.87 a4.83 4.83 0 1 0 9.66 0 a4.83 4.83 0 1 0 -9.66 0zM360.15 448.41 a6.03 6.03 0 1 0 12.06 0 a6.03 6.03 0 1 0 -12.06 0zM208.84 444.02 a6.03 6.03 0 1 0 12.06 0 a6.03 6.03 0 1 0 -12.06 0z" fill="rgba(38, 114, 195, 0.18)" fill-rule="nonzero"></path>
        <path d="M1267.4 1862.72L1267.4 1869.03L1321.97 1869.03L1321.97 1862.72zM1310.79 1865.88 a11.18 11.18 0 1 0 22.36 0 a11.18 11.18 0 1 0 -22.36 0zM1259.43 1909.11L1257.02 1914.94L1295.71 1930.97L1298.12 1925.13zM1285.74 1928.05 a11.18 11.18 0 1 0 22.36 0 a11.18 11.18 0 1 0 -22.36 0zM1234.32 1948.91L1229.85 1953.38L1262.9 1986.43L1267.37 1981.96zM1253.95 1984.2 a11.18 11.18 0 1 0 22.36 0 a11.18 11.18 0 1 0 -22.36 0zM1195.88 1976.08L1190.04 1978.5L1198.47 1998.84L1204.3 1996.42zM1190.21 1997.63 a11.18 11.18 0 1 0 22.36 0 a11.18 11.18 0 1 0 -22.36 0zM1149.97 1986.47L1143.65 1986.47L1143.65 2028.81L1149.97 2028.81zM1135.63 2028.81 a11.18 11.18 0 1 0 22.36 0 a11.18 11.18 0 1 0 -22.36 0zM1103.58 1978.5L1097.75 1976.08L1080.21 2018.42L1086.04 2020.84zM1071.94 2019.63 a11.18 11.18 0 1 0 22.36 0 a11.18 11.18 0 1 0 -22.36 0zM1063.77 1953.38L1059.31 1948.91L1043.66 1964.56L1048.12 1969.03zM1034.71 1966.8 a11.18 11.18 0 1 0 22.36 0 a11.18 11.18 0 1 0 -22.36 0zM1036.61 1914.94L1034.19 1909.11L1016.21 1916.55L1018.63 1922.39zM1006.24 1919.47 a11.18 11.18 0 1 0 22.36 0 a11.18 11.18 0 1 0 -22.36 0zM1026.22 1869.03L1026.22 1862.72L967.42 1862.72L967.42 1869.03zM956.24 1865.88 a11.18 11.18 0 1 0 22.36 0 a11.18 11.18 0 1 0 -22.36 0zM1034.19 1822.64L1036.61 1816.81L983.27 1794.72L980.85 1800.55zM970.88 1797.63 a11.18 11.18 0 1 0 22.36 0 a11.18 11.18 0 1 0 -22.36 0zM1059.31 1782.84L1063.77 1778.37L1037.44 1752.04L1032.97 1756.5zM1024.03 1754.27 a11.18 11.18 0 1 0 22.36 0 a11.18 11.18 0 1 0 -22.36 0zM1097.75 1755.67L1103.58 1753.25L1082.65 1702.74L1076.82 1705.15zM1068.56 1703.94 a11.18 11.18 0 1 0 22.36 0 a11.18 11.18 0 1 0 -22.36 0zM1143.65 1745.28L1149.97 1745.28L1149.97 1725.74L1143.65 1725.74zM1135.63 1725.74 a11.18 11.18 0 1 0 22.36 0 a11.18 11.18 0 1 0 -22.36 0zM1190.04 1753.25L1195.88 1755.67L1218.65 1700.7L1212.81 1698.28zM1204.55 1699.49 a11.18 11.18 0 1 0 22.36 0 a11.18 11.18 0 1 0 -22.36 0zM1229.85 1778.37L1234.32 1782.84L1274.1 1743.05L1269.64 1738.58zM1260.69 1740.81 a11.18 11.18 0 1 0 22.36 0 a11.18 11.18 0 1 0 -22.36 0zM1257.02 1816.81L1259.43 1822.64L1284.94 1812.08L1282.52 1806.24zM1272.55 1809.16 a11.18 11.18 0 1 0 22.36 0 a11.18 11.18 0 1 0 -22.36 0zM1026.18 1865.88 a120.63 120.63 0 1 0 241.26 0 a120.63 120.63 0 1 0 -241.26 0z" fill="rgba(72, 143, 219, 0.18)"></path>
        <path d="M1256.28 1815.18 A119.63359999999999 119.63359999999999 0 0 1 1136.23 1986.04M1136.23 1986.04 A241.26719999999997 241.26719999999997 0 0 0 1256.28 1815.18" fill="rgba(38, 114, 195, 0.18)" fill-rule="nonzero"></path>
        <path d="M1149.29 1877.47 a24.13 24.13 0 1 0 48.26 0 a24.13 24.13 0 1 0 -48.26 0zM1170.01 1955.62 a20.51 20.51 0 1 0 41.02 0 a20.51 20.51 0 1 0 -41.02 0zM1227.33 1791.3 a6.03 6.03 0 1 0 12.06 0 a6.03 6.03 0 1 0 -12.06 0zM1219.42 1896.24 a13.27 13.27 0 1 0 26.54 0 a13.27 13.27 0 1 0 -26.54 0zM1174.29 1823.76 a4.83 4.83 0 1 0 9.66 0 a4.83 4.83 0 1 0 -9.66 0zM1047.73 1849.13 a24.13 24.13 0 1 0 48.26 0 a24.13 24.13 0 1 0 -48.26 0zM1071.67 1926.94 a24.13 24.13 0 1 0 48.26 0 a24.13 24.13 0 1 0 -48.26 0zM1109.96 1763.36 a15.68 15.68 0 1 0 31.36 0 a15.68 15.68 0 1 0 -31.36 0zM1232.33 1828.77 a7.24 7.24 0 1 0 14.48 0 a7.24 7.24 0 1 0 -14.48 0zM1165.1 1774.24 a7.24 7.24 0 1 0 14.48 0 a7.24 7.24 0 1 0 -14.48 0z" fill="rgba(38, 114, 195, 0.18)" fill-rule="nonzero"></path>
        <path d="M779.19 1765.44L779.19 1768.59L791.41 1768.59L791.41 1765.44zM785.82 1767.02 a5.59 5.59 0 1 0 11.18 0 a5.59 5.59 0 1 0 -11.18 0zM775.21 1788.63L774 1791.55L781.45 1794.64L782.66 1791.72zM776.47 1793.18 a5.59 5.59 0 1 0 11.18 0 a5.59 5.59 0 1 0 -11.18 0zM762.65 1808.54L760.42 1810.77L774.17 1824.52L776.4 1822.29zM769.7 1823.4 a5.59 5.59 0 1 0 11.18 0 a5.59 5.59 0 1 0 -11.18 0zM743.43 1822.12L740.51 1823.33L744.8 1833.67L747.72 1832.47zM740.67 1833.07 a5.59 5.59 0 1 0 11.18 0 a5.59 5.59 0 1 0 -11.18 0zM720.48 1827.31L717.32 1827.31L717.32 1835.25L720.48 1835.25zM713.31 1835.25 a5.59 5.59 0 1 0 11.18 0 a5.59 5.59 0 1 0 -11.18 0zM697.28 1823.33L694.36 1822.12L687.24 1839.32L690.15 1840.53zM683.11 1839.92 a5.59 5.59 0 1 0 11.18 0 a5.59 5.59 0 1 0 -11.18 0zM677.38 1810.77L675.14 1808.54L661.01 1822.67L663.24 1824.9zM656.54 1823.79 a5.59 5.59 0 1 0 11.18 0 a5.59 5.59 0 1 0 -11.18 0zM663.79 1791.55L662.59 1788.63L635.65 1799.79L636.85 1802.71zM630.66 1801.25 a5.59 5.59 0 1 0 11.18 0 a5.59 5.59 0 1 0 -11.18 0zM658.6 1768.59L658.6 1765.44L633.7 1765.44L633.7 1768.59zM628.11 1767.02 a5.59 5.59 0 1 0 11.18 0 a5.59 5.59 0 1 0 -11.18 0zM662.59 1745.4L663.79 1742.48L642.39 1733.62L641.18 1736.53zM636.19 1735.07 a5.59 5.59 0 1 0 11.18 0 a5.59 5.59 0 1 0 -11.18 0zM675.14 1725.5L677.38 1723.26L664.75 1710.64L662.52 1712.87zM658.05 1711.76 a5.59 5.59 0 1 0 11.18 0 a5.59 5.59 0 1 0 -11.18 0zM694.36 1711.91L697.28 1710.71L689.47 1691.84L686.55 1693.05zM682.42 1692.44 a5.59 5.59 0 1 0 11.18 0 a5.59 5.59 0 1 0 -11.18 0zM717.32 1706.72L720.48 1706.72L720.48 1680.42L717.32 1680.42zM713.31 1680.42 a5.59 5.59 0 1 0 11.18 0 a5.59 5.59 0 1 0 -11.18 0zM740.51 1710.71L743.43 1711.91L750.96 1693.72L748.05 1692.51zM743.92 1693.12 a5.59 5.59 0 1 0 11.18 0 a5.59 5.59 0 1 0 -11.18 0zM760.42 1723.26L762.65 1725.5L780.85 1707.3L778.62 1705.06zM774.14 1706.18 a5.59 5.59 0 1 0 11.18 0 a5.59 5.59 0 1 0 -11.18 0zM774 1742.48L775.21 1745.4L796.13 1736.73L794.92 1733.81zM789.94 1735.27 a5.59 5.59 0 1 0 11.18 0 a5.59 5.59 0 1 0 -11.18 0zM658.58 1767.02 a60.32 60.32 0 1 0 120.64 0 a60.32 60.32 0 1 0 -120.64 0z" fill="rgba(72, 143, 219, 0.18)"></path>
        <path d="M704.43 1825.57 A59.31679999999999 59.31679999999999 0 0 1 675.33 1725.3M675.33 1725.3 A120.63359999999999 120.63359999999999 0 0 0 704.43 1825.57" fill="rgba(38, 114, 195, 0.18)" fill-rule="nonzero"></path>
        <path d="M723.85 1777.72 a12.06 12.06 0 1 0 24.12 0 a12.06 12.06 0 1 0 -24.12 0zM751.91 1728.05 a5.43 5.43 0 1 0 10.86 0 a5.43 5.43 0 1 0 -10.86 0zM752.55 1803.78 a6.03 6.03 0 1 0 12.06 0 a6.03 6.03 0 1 0 -12.06 0zM659.18 1772.9 a4.83 4.83 0 1 0 9.66 0 a4.83 4.83 0 1 0 -9.66 0zM684.75 1740.34 a12.06 12.06 0 1 0 24.12 0 a12.06 12.06 0 1 0 -24.12 0zM763.57 1783.36 a4.22 4.22 0 1 0 8.44 0 a4.22 4.22 0 1 0 -8.44 0zM709.7 1812.39 a12.06 12.06 0 1 0 24.12 0 a12.06 12.06 0 1 0 -24.12 0zM730.9 1749.34 a4.22 4.22 0 1 0 8.44 0 a4.22 4.22 0 1 0 -8.44 0zM691.55 1803.44 a3.62 3.62 0 1 0 7.24 0 a3.62 3.62 0 1 0 -7.24 0zM706.6 1764.57 a2.41 2.41 0 1 0 4.82 0 a2.41 2.41 0 1 0 -4.82 0z" fill="rgba(38, 114, 195, 0.18)" fill-rule="nonzero"></path>
        <path d="M838.64 2282.73L838.64 2287.47L858.4 2287.47L858.4 2282.73zM850.01 2285.1 a8.39 8.39 0 1 0 16.78 0 a8.39 8.39 0 1 0 -16.78 0zM832.66 2317.53L830.85 2321.9L869.53 2337.93L871.34 2333.55zM862.04 2335.74 a8.39 8.39 0 1 0 16.78 0 a8.39 8.39 0 1 0 -16.78 0zM813.82 2347.38L810.47 2350.73L837.04 2377.3L840.39 2373.96zM830.33 2375.63 a8.39 8.39 0 1 0 16.78 0 a8.39 8.39 0 1 0 -16.78 0zM784.99 2367.76L780.62 2369.57L796.39 2407.65L800.77 2405.84zM790.19 2406.74 a8.39 8.39 0 1 0 16.78 0 a8.39 8.39 0 1 0 -16.78 0zM750.56 2375.55L745.82 2375.55L745.82 2405.19L750.56 2405.19zM739.8 2405.19 a8.39 8.39 0 1 0 16.78 0 a8.39 8.39 0 1 0 -16.78 0zM715.77 2369.57L711.39 2367.76L701.09 2392.63L705.47 2394.44zM694.89 2393.53 a8.39 8.39 0 1 0 16.78 0 a8.39 8.39 0 1 0 -16.78 0zM685.91 2350.73L682.56 2347.38L671 2358.94L674.35 2362.29zM664.29 2360.62 a8.39 8.39 0 1 0 16.78 0 a8.39 8.39 0 1 0 -16.78 0zM665.54 2321.9L663.73 2317.53L639.45 2327.58L641.26 2331.96zM631.96 2329.77 a8.39 8.39 0 1 0 16.78 0 a8.39 8.39 0 1 0 -16.78 0zM657.75 2287.47L657.75 2282.73L615.19 2282.73L615.19 2287.47zM606.8 2285.1 a8.39 8.39 0 1 0 16.78 0 a8.39 8.39 0 1 0 -16.78 0zM663.73 2252.68L665.54 2248.3L648.53 2241.26L646.72 2245.63zM639.23 2243.45 a8.39 8.39 0 1 0 16.78 0 a8.39 8.39 0 1 0 -16.78 0zM682.56 2222.82L685.91 2219.47L666.96 2200.52L663.61 2203.87zM656.9 2202.2 a8.39 8.39 0 1 0 16.78 0 a8.39 8.39 0 1 0 -16.78 0zM711.39 2202.45L715.77 2200.64L710.64 2188.27L706.27 2190.08zM700.07 2189.17 a8.39 8.39 0 1 0 16.78 0 a8.39 8.39 0 1 0 -16.78 0zM745.82 2194.66L750.56 2194.66L750.56 2165.54L745.82 2165.54zM739.8 2165.54 a8.39 8.39 0 1 0 16.78 0 a8.39 8.39 0 1 0 -16.78 0zM780.62 2200.64L784.99 2202.45L795.49 2177.1L791.12 2175.29zM784.91 2176.19 a8.39 8.39 0 1 0 16.78 0 a8.39 8.39 0 1 0 -16.78 0zM810.47 2219.47L813.82 2222.82L828.45 2208.19L825.1 2204.84zM818.39 2206.52 a8.39 8.39 0 1 0 16.78 0 a8.39 8.39 0 1 0 -16.78 0zM830.85 2248.3L832.66 2252.68L863.57 2239.88L861.76 2235.5zM854.27 2237.69 a8.39 8.39 0 1 0 16.78 0 a8.39 8.39 0 1 0 -16.78 0zM657.71 2285.1 a90.48 90.48 0 1 0 180.96 0 a90.48 90.48 0 1 0 -180.96 0z" fill="rgba(72, 143, 219, 0.18)"></path>
        <path d="M829.39 2325.01 A89.4752 89.4752 0 0 1 673.14 2335.63M673.14 2335.63 A180.9504 180.9504 0 0 0 829.39 2325.01" fill="rgba(38, 114, 195, 0.18)" fill-rule="nonzero"></path>
        <path d="M695.84 2353.87 a9.05 9.05 0 1 0 18.1 0 a9.05 9.05 0 1 0 -18.1 0zM684.83 2292.84 a18.09 18.09 0 1 0 36.18 0 a18.09 18.09 0 1 0 -36.18 0zM778.82 2297.27 a18.09 18.09 0 1 0 36.18 0 a18.09 18.09 0 1 0 -36.18 0zM748.37 2370.7 a4.52 4.52 0 1 0 9.04 0 a4.52 4.52 0 1 0 -9.04 0zM674.84 2334.29 a4.52 4.52 0 1 0 9.04 0 a4.52 4.52 0 1 0 -9.04 0zM706.87 2250.73 a6.33 6.33 0 1 0 12.66 0 a6.33 6.33 0 1 0 -12.66 0zM725.58 2215.72 a18.09 18.09 0 1 0 36.18 0 a18.09 18.09 0 1 0 -36.18 0zM776.39 2341.89 a9.05 9.05 0 1 0 18.1 0 a9.05 9.05 0 1 0 -18.1 0zM788.22 2233.22 a14.48 14.48 0 1 0 28.96 0 a14.48 14.48 0 1 0 -28.96 0zM682.35 2226.27 a7.24 7.24 0 1 0 14.48 0 a7.24 7.24 0 1 0 -14.48 0z" fill="rgba(38, 114, 195, 0.18)" fill-rule="nonzero"></path>
        <path d="M633.41 932.35L633.41 936.29L643.4 936.29L643.4 932.35zM636.41 934.32 a6.99 6.99 0 1 0 13.98 0 a6.99 6.99 0 1 0 -13.98 0zM628.43 961.34L626.92 964.99L647.47 973.5L648.98 969.85zM641.23 971.67 a6.99 6.99 0 1 0 13.98 0 a6.99 6.99 0 1 0 -13.98 0zM612.73 986.22L609.94 989.01L632.64 1011.71L635.43 1008.92zM627.05 1010.31 a6.99 6.99 0 1 0 13.98 0 a6.99 6.99 0 1 0 -13.98 0zM588.71 1003.2L585.06 1004.71L597.84 1035.56L601.49 1034.05zM592.67 1034.8 a6.99 6.99 0 1 0 13.98 0 a6.99 6.99 0 1 0 -13.98 0zM560.02 1009.69L556.07 1009.69L556.07 1046.49L560.02 1046.49zM551.05 1046.49 a6.99 6.99 0 1 0 13.98 0 a6.99 6.99 0 1 0 -13.98 0zM531.02 1004.71L527.38 1003.2L515.09 1032.86L518.74 1034.37zM509.92 1033.62 a6.99 6.99 0 1 0 13.98 0 a6.99 6.99 0 1 0 -13.98 0zM506.14 989.01L503.35 986.22L492.2 997.38L494.99 1000.17zM486.6 998.77 a6.99 6.99 0 1 0 13.98 0 a6.99 6.99 0 1 0 -13.98 0zM489.17 964.99L487.66 961.34L474.03 966.98L475.54 970.63zM467.79 968.81 a6.99 6.99 0 1 0 13.98 0 a6.99 6.99 0 1 0 -13.98 0zM482.67 936.29L482.67 932.35L449.49 932.35L449.49 936.29zM442.5 934.32 a6.99 6.99 0 1 0 13.98 0 a6.99 6.99 0 1 0 -13.98 0zM487.66 907.3L489.17 903.65L461.71 892.28L460.2 895.93zM453.96 894.1 a6.99 6.99 0 1 0 13.98 0 a6.99 6.99 0 1 0 -13.98 0zM503.35 882.42L506.14 879.63L495.09 868.58L492.3 871.37zM486.71 869.97 a6.99 6.99 0 1 0 13.98 0 a6.99 6.99 0 1 0 -13.98 0zM527.38 865.44L531.02 863.93L523.25 845.16L519.6 846.67zM514.43 845.91 a6.99 6.99 0 1 0 13.98 0 a6.99 6.99 0 1 0 -13.98 0zM556.07 858.95L560.02 858.95L560.02 841.58L556.07 841.58zM551.05 841.58 a6.99 6.99 0 1 0 13.98 0 a6.99 6.99 0 1 0 -13.98 0zM585.06 863.93L588.71 865.44L602.73 831.6L599.08 830.09zM593.91 830.85 a6.99 6.99 0 1 0 13.98 0 a6.99 6.99 0 1 0 -13.98 0zM609.94 879.63L612.73 882.42L636.34 858.82L633.55 856.03zM627.95 857.42 a6.99 6.99 0 1 0 13.98 0 a6.99 6.99 0 1 0 -13.98 0zM626.92 903.65L628.43 907.3L638.41 903.17L636.9 899.52zM630.66 901.34 a6.99 6.99 0 1 0 13.98 0 a6.99 6.99 0 1 0 -13.98 0zM482.64 934.32 a75.4 75.4 0 1 0 150.8 0 a75.4 75.4 0 1 0 -150.8 0z" fill="rgba(72, 143, 219, 0.18)"></path>
        <path d="M514.33 995.75 A74.396 74.396 0 0 1 526.56 865.81M526.56 865.81 A150.792 150.792 0 0 0 514.33 995.75" fill="rgba(38, 114, 195, 0.18)" fill-rule="nonzero"></path>
        <path d="M523.1 956.68 a15.08 15.08 0 1 0 30.16 0 a15.08 15.08 0 1 0 -30.16 0zM523.29 901.34 a15.08 15.08 0 1 0 30.16 0 a15.08 15.08 0 1 0 -30.16 0zM537.19 993.18 a6.03 6.03 0 1 0 12.06 0 a6.03 6.03 0 1 0 -12.06 0zM592.7 946.4 a15.08 15.08 0 1 0 30.16 0 a15.08 15.08 0 1 0 -30.16 0zM561.29 923.71 a6.79 6.79 0 1 0 13.58 0 a6.79 6.79 0 1 0 -13.58 0zM500.32 896.58 a3.77 3.77 0 1 0 7.54 0 a3.77 3.77 0 1 0 -7.54 0zM590.4 995.8 a3.77 3.77 0 1 0 7.54 0 a3.77 3.77 0 1 0 -7.54 0zM483.17 930.56 a8.29 8.29 0 1 0 16.58 0 a8.29 8.29 0 1 0 -16.58 0zM580.58 904.22 a3.02 3.02 0 1 0 6.04 0 a3.02 3.02 0 1 0 -6.04 0zM601.66 912.85 a3.02 3.02 0 1 0 6.04 0 a3.02 3.02 0 1 0 -6.04 0z" fill="rgba(38, 114, 195, 0.18)" fill-rule="nonzero"></path>
        <path d="M413.85 2226.74L413.85 2230.69L440.47 2230.69L440.47 2226.74zM433.48 2228.71 a6.99 6.99 0 1 0 13.98 0 a6.99 6.99 0 1 0 -13.98 0zM408.87 2255.73L407.36 2259.38L431.7 2269.46L433.21 2265.81zM425.46 2267.63 a6.99 6.99 0 1 0 13.98 0 a6.99 6.99 0 1 0 -13.98 0zM393.17 2280.61L390.38 2283.4L415.2 2308.22L417.99 2305.43zM409.61 2306.83 a6.99 6.99 0 1 0 13.98 0 a6.99 6.99 0 1 0 -13.98 0zM369.15 2297.59L365.5 2299.1L375.29 2322.74L378.94 2321.23zM370.13 2321.99 a6.99 6.99 0 1 0 13.98 0 a6.99 6.99 0 1 0 -13.98 0zM340.46 2304.08L336.51 2304.08L336.51 2317.05L340.46 2317.05zM331.49 2317.05 a6.99 6.99 0 1 0 13.98 0 a6.99 6.99 0 1 0 -13.98 0zM311.46 2299.1L307.82 2297.59L295.01 2328.5L298.66 2330.01zM289.84 2329.26 a6.99 6.99 0 1 0 13.98 0 a6.99 6.99 0 1 0 -13.98 0zM286.58 2283.4L283.79 2280.61L257.73 2306.67L260.52 2309.47zM252.13 2308.07 a6.99 6.99 0 1 0 13.98 0 a6.99 6.99 0 1 0 -13.98 0zM269.6 2259.38L268.09 2255.73L243.09 2266.09L244.6 2269.73zM236.86 2267.91 a6.99 6.99 0 1 0 13.98 0 a6.99 6.99 0 1 0 -13.98 0zM263.11 2230.69L263.11 2226.74L240.95 2226.74L240.95 2230.69zM233.96 2228.71 a6.99 6.99 0 1 0 13.98 0 a6.99 6.99 0 1 0 -13.98 0zM268.09 2201.69L269.6 2198.05L251.78 2190.66L250.27 2194.31zM244.04 2192.49 a6.99 6.99 0 1 0 13.98 0 a6.99 6.99 0 1 0 -13.98 0zM283.79 2176.81L286.58 2174.02L262.93 2150.37L260.14 2153.16zM254.54 2151.76 a6.99 6.99 0 1 0 13.98 0 a6.99 6.99 0 1 0 -13.98 0zM307.82 2159.83L311.46 2158.32L299.25 2128.84L295.6 2130.35zM290.44 2129.6 a6.99 6.99 0 1 0 13.98 0 a6.99 6.99 0 1 0 -13.98 0zM336.51 2153.34L340.46 2153.34L340.46 2124.18L336.51 2124.18zM331.49 2124.18 a6.99 6.99 0 1 0 13.98 0 a6.99 6.99 0 1 0 -13.98 0zM365.5 2158.32L369.15 2159.83L375.23 2145.15L371.58 2143.64zM366.42 2144.4 a6.99 6.99 0 1 0 13.98 0 a6.99 6.99 0 1 0 -13.98 0zM390.38 2174.02L393.17 2176.81L404.15 2165.84L401.36 2163.05zM395.76 2164.44 a6.99 6.99 0 1 0 13.98 0 a6.99 6.99 0 1 0 -13.98 0zM407.36 2198.05L408.87 2201.69L436 2190.46L434.49 2186.81zM428.25 2188.63 a6.99 6.99 0 1 0 13.98 0 a6.99 6.99 0 1 0 -13.98 0zM263.08 2228.71 a75.4 75.4 0 1 0 150.8 0 a75.4 75.4 0 1 0 -150.8 0z" fill="rgba(72, 143, 219, 0.18)"></path>
        <path d="M350.71 2154.31 A74.396 74.396 0 0 1 396.9 2276.37M396.9 2276.37 A150.792 150.792 0 0 0 350.71 2154.31" fill="rgba(38, 114, 195, 0.18)" fill-rule="nonzero"></path>
        <path d="M291.73 2181.09 a15.08 15.08 0 1 0 30.16 0 a15.08 15.08 0 1 0 -30.16 0zM313.25 2238.96 a15.08 15.08 0 1 0 30.16 0 a15.08 15.08 0 1 0 -30.16 0zM313.52 2284.56 a15.08 15.08 0 1 0 30.16 0 a15.08 15.08 0 1 0 -30.16 0zM403.07 2253.61 a3.02 3.02 0 1 0 6.04 0 a3.02 3.02 0 1 0 -6.04 0zM396.2 2190.66 a3.02 3.02 0 1 0 6.04 0 a3.02 3.02 0 1 0 -6.04 0zM278.96 2270.66 a10.56 10.56 0 1 0 21.12 0 a10.56 10.56 0 1 0 -21.12 0zM336.27 2190.33 a10.56 10.56 0 1 0 21.12 0 a10.56 10.56 0 1 0 -21.12 0zM360.63 2233.44 a15.08 15.08 0 1 0 30.16 0 a15.08 15.08 0 1 0 -30.16 0zM370.94 2273.1 a9.8 9.8 0 1 0 19.6 0 a9.8 9.8 0 1 0 -19.6 0zM366.68 2168.63 a6.03 6.03 0 1 0 12.06 0 a6.03 6.03 0 1 0 -12.06 0z" fill="rgba(38, 114, 195, 0.18)" fill-rule="nonzero"></path>
    </g>
    <defs>
        <mask id="SvgjsMask1805">
            <rect width="1560" height="2440" fill="#ffffff"></rect>
        </mask>
        <linearGradient x1="50%" y1="100%" x2="50%" y2="0%" gradientUnits="userSpaceOnUse" id="SvgjsLinearGradient1806">
            <stop stop-color="rgba(14, 42, 71, 1)" offset="0"></stop>
            <stop stop-color="rgba(20, 69, 133, 1)" offset="0.5"></stop>
            <stop stop-color="rgba(14, 42, 71, 1)" offset="1"></stop>
        </linearGradient>
    </defs>
</svg> -->

<svg xmlns="http://www.w3.org/2000/svg" version="1.1" xmlns:xlink="http://www.w3.org/1999/xlink" xmlns:svgjs="http://svgjs.dev/svgjs" width="1560" height="2440" preserveAspectRatio="none" viewBox="0 0 1560 2440">
    <g mask="url(&quot;#SvgjsMask1187&quot;)" fill="none">
        <rect width="1560" height="2440" x="0" y="0" fill="rgba(9, 20, 31, 1)"></rect>
        <path d="M1367.86 1552.03L1367.86 1558.34L1417.4 1558.34L1417.4 1552.03zM1406.22 1555.19 a11.18 11.18 0 1 0 22.36 0 a11.18 11.18 0 1 0 -22.36 0zM1359.89 1598.42L1357.47 1604.25L1390.42 1617.9L1392.83 1612.06zM1380.45 1614.98 a11.18 11.18 0 1 0 22.36 0 a11.18 11.18 0 1 0 -22.36 0zM1334.77 1638.22L1330.31 1642.69L1371.47 1683.85L1375.93 1679.39zM1362.52 1681.62 a11.18 11.18 0 1 0 22.36 0 a11.18 11.18 0 1 0 -22.36 0zM1296.33 1665.39L1290.5 1667.81L1298.89 1688.06L1304.72 1685.64zM1290.62 1686.85 a11.18 11.18 0 1 0 22.36 0 a11.18 11.18 0 1 0 -22.36 0zM1250.43 1675.78L1244.11 1675.78L1244.11 1707.7L1250.43 1707.7zM1236.09 1707.7 a11.18 11.18 0 1 0 22.36 0 a11.18 11.18 0 1 0 -22.36 0zM1204.04 1667.81L1198.2 1665.39L1190.3 1684.48L1196.13 1686.89zM1182.03 1685.69 a11.18 11.18 0 1 0 22.36 0 a11.18 11.18 0 1 0 -22.36 0zM1164.23 1642.69L1159.76 1638.22L1144.19 1653.8L1148.65 1658.27zM1135.24 1656.04 a11.18 11.18 0 1 0 22.36 0 a11.18 11.18 0 1 0 -22.36 0zM1137.06 1604.25L1134.65 1598.42L1087.41 1617.98L1089.83 1623.82zM1077.44 1620.9 a11.18 11.18 0 1 0 22.36 0 a11.18 11.18 0 1 0 -22.36 0zM1126.68 1558.34L1126.68 1552.03L1082.35 1552.03L1082.35 1558.34zM1071.17 1555.19 a11.18 11.18 0 1 0 22.36 0 a11.18 11.18 0 1 0 -22.36 0zM1134.65 1511.95L1137.06 1506.12L1090.44 1486.81L1088.02 1492.64zM1078.05 1489.72 a11.18 11.18 0 1 0 22.36 0 a11.18 11.18 0 1 0 -22.36 0zM1159.76 1472.15L1164.23 1467.68L1135.37 1438.82L1130.91 1443.29zM1121.96 1441.06 a11.18 11.18 0 1 0 22.36 0 a11.18 11.18 0 1 0 -22.36 0zM1198.2 1444.98L1204.04 1442.56L1186.59 1400.45L1180.76 1402.86zM1172.49 1401.65 a11.18 11.18 0 1 0 22.36 0 a11.18 11.18 0 1 0 -22.36 0zM1244.11 1434.59L1250.43 1434.59L1250.43 1410.39L1244.11 1410.39zM1236.09 1410.39 a11.18 11.18 0 1 0 22.36 0 a11.18 11.18 0 1 0 -22.36 0zM1290.5 1442.56L1296.33 1444.98L1309.56 1413.05L1303.72 1410.64zM1295.46 1411.84 a11.18 11.18 0 1 0 22.36 0 a11.18 11.18 0 1 0 -22.36 0zM1330.31 1467.68L1334.77 1472.15L1351.56 1455.36L1347.09 1450.89zM1338.15 1453.13 a11.18 11.18 0 1 0 22.36 0 a11.18 11.18 0 1 0 -22.36 0zM1357.47 1506.12L1359.89 1511.95L1403.27 1493.99L1400.85 1488.15zM1390.88 1491.07 a11.18 11.18 0 1 0 22.36 0 a11.18 11.18 0 1 0 -22.36 0zM1126.64 1555.19 a120.63 120.63 0 1 0 241.26 0 a120.63 120.63 0 1 0 -241.26 0z" fill="rgba(66, 140, 222, 0.13)"></path>
        <path d="M1167.13 1465.02 A119.63359999999999 119.63359999999999 0 0 1 1365.37 1530.62M1365.37 1530.62 A241.26719999999997 241.26719999999997 0 0 0 1167.13 1465.02" fill="rgba(34, 111, 196, 0.13)" fill-rule="nonzero"></path>
        <path d="M1297.75 1593.36 a24.13 24.13 0 1 0 48.26 0 a24.13 24.13 0 1 0 -48.26 0zM1263.82 1626.27 a9.65 9.65 0 1 0 19.3 0 a9.65 9.65 0 1 0 -19.3 0zM1180.04 1635.78 a24.13 24.13 0 1 0 48.26 0 a24.13 24.13 0 1 0 -48.26 0zM1140.43 1579.14 a21.71 21.71 0 1 0 43.42 0 a21.71 21.71 0 1 0 -43.42 0zM1229.65 1591.66 a4.83 4.83 0 1 0 9.66 0 a4.83 4.83 0 1 0 -9.66 0zM1209.81 1534 a24.13 24.13 0 1 0 48.26 0 a24.13 24.13 0 1 0 -48.26 0zM1312.2 1484.96 a14.48 14.48 0 1 0 28.96 0 a14.48 14.48 0 1 0 -28.96 0zM1349.74 1541.42 a8.44 8.44 0 1 0 16.88 0 a8.44 8.44 0 1 0 -16.88 0zM1209.52 1451.15 a13.27 13.27 0 1 0 26.54 0 a13.27 13.27 0 1 0 -26.54 0zM1269.55 1568.51 a4.83 4.83 0 1 0 9.66 0 a4.83 4.83 0 1 0 -9.66 0z" fill="rgba(34, 111, 196, 0.13)" fill-rule="nonzero"></path>
        <path d="M473 144.61L473 149.35L510.55 149.35L510.55 144.61zM502.16 146.98 a8.39 8.39 0 1 0 16.78 0 a8.39 8.39 0 1 0 -16.78 0zM467.02 179.4L465.21 183.78L486.19 192.47L488 188.09zM478.7 190.28 a8.39 8.39 0 1 0 16.78 0 a8.39 8.39 0 1 0 -16.78 0zM448.18 209.26L444.83 212.61L465.08 232.85L468.43 229.5zM458.36 231.18 a8.39 8.39 0 1 0 16.78 0 a8.39 8.39 0 1 0 -16.78 0zM419.35 229.63L414.98 231.44L420.17 243.98L424.55 242.17zM413.97 243.08 a8.39 8.39 0 1 0 16.78 0 a8.39 8.39 0 1 0 -16.78 0zM384.92 237.42L380.18 237.42L380.18 251.96L384.92 251.96zM374.16 251.96 a8.39 8.39 0 1 0 16.78 0 a8.39 8.39 0 1 0 -16.78 0zM350.13 231.44L345.75 229.63L329.51 268.84L333.89 270.65zM323.31 269.75 a8.39 8.39 0 1 0 16.78 0 a8.39 8.39 0 1 0 -16.78 0zM320.27 212.61L316.92 209.26L287.49 238.69L290.84 242.04zM280.78 240.36 a8.39 8.39 0 1 0 16.78 0 a8.39 8.39 0 1 0 -16.78 0zM299.9 183.78L298.09 179.4L281.5 186.27L283.32 190.65zM274.02 188.46 a8.39 8.39 0 1 0 16.78 0 a8.39 8.39 0 1 0 -16.78 0zM292.11 149.35L292.11 144.61L276.89 144.61L276.89 149.35zM268.5 146.98 a8.39 8.39 0 1 0 16.78 0 a8.39 8.39 0 1 0 -16.78 0zM298.09 114.56L299.9 110.18L269.01 97.39L267.2 101.76zM259.72 99.57 a8.39 8.39 0 1 0 16.78 0 a8.39 8.39 0 1 0 -16.78 0zM316.92 84.7L320.27 81.35L296.79 57.87L293.44 61.22zM286.73 59.54 a8.39 8.39 0 1 0 16.78 0 a8.39 8.39 0 1 0 -16.78 0zM345.75 64.33L350.13 62.51L343.87 47.4L339.49 49.21zM333.29 48.3 a8.39 8.39 0 1 0 16.78 0 a8.39 8.39 0 1 0 -16.78 0zM380.18 56.53L384.92 56.53L384.92 36.88L380.18 36.88zM374.16 36.88 a8.39 8.39 0 1 0 16.78 0 a8.39 8.39 0 1 0 -16.78 0zM414.98 62.51L419.35 64.33L428.44 42.37L424.07 40.56zM417.87 41.47 a8.39 8.39 0 1 0 16.78 0 a8.39 8.39 0 1 0 -16.78 0zM444.83 81.35L448.18 84.7L465.46 67.42L462.11 64.07zM455.4 65.74 a8.39 8.39 0 1 0 16.78 0 a8.39 8.39 0 1 0 -16.78 0zM465.21 110.18L467.02 114.56L498.65 101.45L496.84 97.08zM489.36 99.26 a8.39 8.39 0 1 0 16.78 0 a8.39 8.39 0 1 0 -16.78 0zM292.07 146.98 a90.48 90.48 0 1 0 180.96 0 a90.48 90.48 0 1 0 -180.96 0z" fill="rgba(66, 140, 222, 0.13)"></path>
        <path d="M337.9 68.29 A89.4752 89.4752 0 0 1 473.03 147.47M473.03 147.47 A180.9504 180.9504 0 0 0 337.9 68.29" fill="rgba(34, 111, 196, 0.13)" fill-rule="nonzero"></path>
        <path d="M407.59 99.4 a18.09 18.09 0 1 0 36.18 0 a18.09 18.09 0 1 0 -36.18 0zM390.42 146.19 a14.48 14.48 0 1 0 28.96 0 a14.48 14.48 0 1 0 -28.96 0zM321.92 175.57 a18.09 18.09 0 1 0 36.18 0 a18.09 18.09 0 1 0 -36.18 0zM420.89 212.63 a9.05 9.05 0 1 0 18.1 0 a9.05 9.05 0 1 0 -18.1 0zM363.83 208.65 a11.76 11.76 0 1 0 23.52 0 a11.76 11.76 0 1 0 -23.52 0zM363.8 72.85 a16.29 16.29 0 1 0 32.58 0 a16.29 16.29 0 1 0 -32.58 0zM360.88 141.58 a5.43 5.43 0 1 0 10.86 0 a5.43 5.43 0 1 0 -10.86 0zM433.64 179.37 a8.14 8.14 0 1 0 16.28 0 a8.14 8.14 0 1 0 -16.28 0zM459.5 151.69 a6.33 6.33 0 1 0 12.66 0 a6.33 6.33 0 1 0 -12.66 0zM302.57 108.23 a8.14 8.14 0 1 0 16.28 0 a8.14 8.14 0 1 0 -16.28 0z" fill="rgba(34, 111, 196, 0.13)" fill-rule="nonzero"></path>
        <path d="M346.67 996.43L346.67 1002.74L362.81 1002.74L362.81 996.43zM351.63 999.58 a11.18 11.18 0 1 0 22.36 0 a11.18 11.18 0 1 0 -22.36 0zM338.7 1042.81L336.28 1048.65L389.33 1070.62L391.75 1064.79zM379.36 1067.71 a11.18 11.18 0 1 0 22.36 0 a11.18 11.18 0 1 0 -22.36 0zM313.58 1082.62L309.12 1087.09L344.65 1122.62L349.11 1118.15zM335.7 1120.39 a11.18 11.18 0 1 0 22.36 0 a11.18 11.18 0 1 0 -22.36 0zM275.14 1109.79L269.31 1112.2L287.28 1155.58L293.11 1153.16zM279.01 1154.37 a11.18 11.18 0 1 0 22.36 0 a11.18 11.18 0 1 0 -22.36 0zM229.23 1120.18L222.92 1120.18L222.92 1136.3L229.23 1136.3zM214.9 1136.3 a11.18 11.18 0 1 0 22.36 0 a11.18 11.18 0 1 0 -22.36 0zM182.85 1112.2L177.01 1109.79L163.55 1142.28L169.39 1144.7zM155.29 1143.49 a11.18 11.18 0 1 0 22.36 0 a11.18 11.18 0 1 0 -22.36 0zM143.04 1087.09L138.57 1082.62L103.86 1117.33L108.33 1121.8zM94.91 1119.57 a11.18 11.18 0 1 0 22.36 0 a11.18 11.18 0 1 0 -22.36 0zM115.87 1048.65L113.46 1042.81L71.58 1060.16L73.99 1066zM61.6 1063.08 a11.18 11.18 0 1 0 22.36 0 a11.18 11.18 0 1 0 -22.36 0zM105.48 1002.74L105.48 996.43L84.96 996.43L84.96 1002.74zM73.78 999.58 a11.18 11.18 0 1 0 22.36 0 a11.18 11.18 0 1 0 -22.36 0zM113.46 956.35L115.87 950.52L74.23 933.27L71.82 939.1zM61.84 936.19 a11.18 11.18 0 1 0 22.36 0 a11.18 11.18 0 1 0 -22.36 0zM138.57 916.54L143.04 912.08L107.06 876.1L102.59 880.57zM93.65 878.33 a11.18 11.18 0 1 0 22.36 0 a11.18 11.18 0 1 0 -22.36 0zM177.01 889.38L182.85 886.96L174.63 867.14L168.8 869.55zM160.54 868.34 a11.18 11.18 0 1 0 22.36 0 a11.18 11.18 0 1 0 -22.36 0zM222.92 878.99L229.23 878.99L229.23 836.58L222.92 836.58zM214.9 836.58 a11.18 11.18 0 1 0 22.36 0 a11.18 11.18 0 1 0 -22.36 0zM269.31 886.96L275.14 889.38L289.56 854.57L283.73 852.15zM275.46 853.36 a11.18 11.18 0 1 0 22.36 0 a11.18 11.18 0 1 0 -22.36 0zM309.12 912.08L313.58 916.54L355 875.12L350.54 870.66zM341.59 872.89 a11.18 11.18 0 1 0 22.36 0 a11.18 11.18 0 1 0 -22.36 0zM336.28 950.52L338.7 956.35L362.16 946.64L359.74 940.8zM349.77 943.72 a11.18 11.18 0 1 0 22.36 0 a11.18 11.18 0 1 0 -22.36 0zM105.45 999.58 a120.63 120.63 0 1 0 241.26 0 a120.63 120.63 0 1 0 -241.26 0z" fill="rgba(66, 140, 222, 0.13)"></path>
        <path d="M225.4 1120.21 A119.63359999999999 119.63359999999999 0 0 1 121.82 938.9M121.82 938.9 A241.26719999999997 241.26719999999997 0 0 0 225.4 1120.21" fill="rgba(34, 111, 196, 0.13)" fill-rule="nonzero"></path>
        <path d="M162.38 952.87 a24.13 24.13 0 1 0 48.26 0 a24.13 24.13 0 1 0 -48.26 0zM213.85 1085.95 a24.13 24.13 0 1 0 48.26 0 a24.13 24.13 0 1 0 -48.26 0zM257.09 912.98 a19.3 19.3 0 1 0 38.6 0 a19.3 19.3 0 1 0 -38.6 0zM229.37 1017.36 a20.51 20.51 0 1 0 41.02 0 a20.51 20.51 0 1 0 -41.02 0zM197.61 1038.63 a6.03 6.03 0 1 0 12.06 0 a6.03 6.03 0 1 0 -12.06 0zM106.39 1013.61 a14.48 14.48 0 1 0 28.96 0 a14.48 14.48 0 1 0 -28.96 0zM326.24 986.4 a9.65 9.65 0 1 0 19.3 0 a9.65 9.65 0 1 0 -19.3 0zM188.66 893.24 a9.65 9.65 0 1 0 19.3 0 a9.65 9.65 0 1 0 -19.3 0zM142.86 1079.21 a14.48 14.48 0 1 0 28.96 0 a14.48 14.48 0 1 0 -28.96 0zM166.17 1006.25 a6.03 6.03 0 1 0 12.06 0 a6.03 6.03 0 1 0 -12.06 0z" fill="rgba(34, 111, 196, 0.13)" fill-rule="nonzero"></path>
        <path d="M1136.91 2078.03L1136.91 2084.35L1184.87 2084.35L1184.87 2078.03zM1173.69 2081.19 a11.18 11.18 0 1 0 22.36 0 a11.18 11.18 0 1 0 -22.36 0zM1128.94 2124.42L1126.52 2130.26L1147.29 2138.86L1149.7 2133.02zM1137.32 2135.94 a11.18 11.18 0 1 0 22.36 0 a11.18 11.18 0 1 0 -22.36 0zM1103.82 2164.23L1099.35 2168.69L1136.64 2205.98L1141.1 2201.51zM1127.69 2203.75 a11.18 11.18 0 1 0 22.36 0 a11.18 11.18 0 1 0 -22.36 0zM1065.38 2191.39L1059.55 2193.81L1069.92 2218.85L1075.75 2216.43zM1061.65 2217.64 a11.18 11.18 0 1 0 22.36 0 a11.18 11.18 0 1 0 -22.36 0zM1019.47 2201.78L1013.16 2201.78L1013.16 2237.99L1019.47 2237.99zM1005.13 2237.99 a11.18 11.18 0 1 0 22.36 0 a11.18 11.18 0 1 0 -22.36 0zM973.08 2193.81L967.25 2191.39L948.75 2236.06L954.58 2238.48zM940.48 2237.27 a11.18 11.18 0 1 0 22.36 0 a11.18 11.18 0 1 0 -22.36 0zM933.28 2168.69L928.81 2164.23L906.49 2186.55L910.95 2191.02zM897.54 2188.78 a11.18 11.18 0 1 0 22.36 0 a11.18 11.18 0 1 0 -22.36 0zM906.11 2130.26L903.69 2124.42L850.8 2146.33L853.22 2152.16zM840.83 2149.25 a11.18 11.18 0 1 0 22.36 0 a11.18 11.18 0 1 0 -22.36 0zM895.72 2084.35L895.72 2078.03L879 2078.03L879 2084.35zM867.82 2081.19 a11.18 11.18 0 1 0 22.36 0 a11.18 11.18 0 1 0 -22.36 0zM903.69 2037.96L906.11 2032.12L853.69 2010.41L851.27 2016.25zM841.3 2013.33 a11.18 11.18 0 1 0 22.36 0 a11.18 11.18 0 1 0 -22.36 0zM928.81 1998.15L933.28 1993.69L901.92 1962.33L897.45 1966.79zM888.5 1964.56 a11.18 11.18 0 1 0 22.36 0 a11.18 11.18 0 1 0 -22.36 0zM967.25 1970.99L973.08 1968.57L953.09 1920.3L947.25 1922.71zM938.99 1921.5 a11.18 11.18 0 1 0 22.36 0 a11.18 11.18 0 1 0 -22.36 0zM1013.16 1960.6L1019.47 1960.6L1019.47 1944.23L1013.16 1944.23zM1005.13 1944.23 a11.18 11.18 0 1 0 22.36 0 a11.18 11.18 0 1 0 -22.36 0zM1059.55 1968.57L1065.38 1970.99L1075.57 1946.39L1069.73 1943.97zM1061.47 1945.18 a11.18 11.18 0 1 0 22.36 0 a11.18 11.18 0 1 0 -22.36 0zM1099.35 1993.69L1103.82 1998.15L1115.08 1986.89L1110.61 1982.43zM1101.66 1984.66 a11.18 11.18 0 1 0 22.36 0 a11.18 11.18 0 1 0 -22.36 0zM1126.52 2032.12L1128.94 2037.96L1147.45 2030.29L1145.03 2024.45zM1135.06 2027.37 a11.18 11.18 0 1 0 22.36 0 a11.18 11.18 0 1 0 -22.36 0zM895.68 2081.19 a120.63 120.63 0 1 0 241.26 0 a120.63 120.63 0 1 0 -241.26 0z" fill="rgba(66, 140, 222, 0.13)"></path>
        <path d="M922.25 2156.71 A119.63359999999999 119.63359999999999 0 0 1 997.69 1962M997.69 1962 A241.26719999999997 241.26719999999997 0 0 0 922.25 2156.71" fill="rgba(34, 111, 196, 0.13)" fill-rule="nonzero"></path>
        <path d="M912.98 2121.56 a24.13 24.13 0 1 0 48.26 0 a24.13 24.13 0 1 0 -48.26 0zM1004.26 2144.17 a24.13 24.13 0 1 0 48.26 0 a24.13 24.13 0 1 0 -48.26 0zM1115.51 2098.68 a9.65 9.65 0 1 0 19.3 0 a9.65 9.65 0 1 0 -19.3 0zM1074.22 1991.33 a8.44 8.44 0 1 0 16.88 0 a8.44 8.44 0 1 0 -16.88 0zM1074.71 2124.55 a12.06 12.06 0 1 0 24.12 0 a12.06 12.06 0 1 0 -24.12 0zM1070.69 2071.62 a14.48 14.48 0 1 0 28.96 0 a14.48 14.48 0 1 0 -28.96 0zM903.83 2043.16 a13.27 13.27 0 1 0 26.54 0 a13.27 13.27 0 1 0 -26.54 0zM955.97 2046.47 a24.13 24.13 0 1 0 48.26 0 a24.13 24.13 0 1 0 -48.26 0zM1098.12 2024.55 a6.03 6.03 0 1 0 12.06 0 a6.03 6.03 0 1 0 -12.06 0zM1015.55 1965.99 a4.83 4.83 0 1 0 9.66 0 a4.83 4.83 0 1 0 -9.66 0z" fill="rgba(34, 111, 196, 0.13)" fill-rule="nonzero"></path>
        <path d="M1193.31 770.87L1193.31 777.18L1248.03 777.18L1248.03 770.87zM1236.85 774.02 a11.18 11.18 0 1 0 22.36 0 a11.18 11.18 0 1 0 -22.36 0zM1185.34 817.25L1182.92 823.09L1196.77 828.83L1199.19 822.99zM1186.8 825.91 a11.18 11.18 0 1 0 22.36 0 a11.18 11.18 0 1 0 -22.36 0zM1160.22 857.06L1155.75 861.53L1174.8 880.58L1179.27 876.11zM1165.86 878.34 a11.18 11.18 0 1 0 22.36 0 a11.18 11.18 0 1 0 -22.36 0zM1121.78 884.23L1115.95 886.64L1127.22 913.86L1133.06 911.45zM1118.96 912.65 a11.18 11.18 0 1 0 22.36 0 a11.18 11.18 0 1 0 -22.36 0zM1075.87 894.62L1069.56 894.62L1069.56 915.2L1075.87 915.2zM1061.54 915.2 a11.18 11.18 0 1 0 22.36 0 a11.18 11.18 0 1 0 -22.36 0zM1029.49 886.64L1023.65 884.23L1007.65 922.86L1013.48 925.28zM999.38 924.07 a11.18 11.18 0 1 0 22.36 0 a11.18 11.18 0 1 0 -22.36 0zM989.68 861.53L985.21 857.06L958.86 883.42L963.32 887.88zM949.91 885.65 a11.18 11.18 0 1 0 22.36 0 a11.18 11.18 0 1 0 -22.36 0zM962.51 823.09L960.1 817.25L931.51 829.09L933.93 834.93zM921.54 832.01 a11.18 11.18 0 1 0 22.36 0 a11.18 11.18 0 1 0 -22.36 0zM952.12 777.18L952.12 770.87L901.06 770.87L901.06 777.18zM889.88 774.02 a11.18 11.18 0 1 0 22.36 0 a11.18 11.18 0 1 0 -22.36 0zM960.1 730.79L962.51 724.96L922.91 708.56L920.5 714.39zM910.53 711.47 a11.18 11.18 0 1 0 22.36 0 a11.18 11.18 0 1 0 -22.36 0zM985.21 690.98L989.68 686.52L959.8 656.64L955.34 661.11zM946.39 658.88 a11.18 11.18 0 1 0 22.36 0 a11.18 11.18 0 1 0 -22.36 0zM1023.65 663.82L1029.49 661.4L1007.43 608.15L1001.59 610.57zM993.33 609.36 a11.18 11.18 0 1 0 22.36 0 a11.18 11.18 0 1 0 -22.36 0zM1069.56 653.43L1075.87 653.43L1075.87 620.53L1069.56 620.53zM1061.54 620.53 a11.18 11.18 0 1 0 22.36 0 a11.18 11.18 0 1 0 -22.36 0zM1115.95 661.4L1121.78 663.82L1142.78 613.12L1136.95 610.7zM1128.69 611.91 a11.18 11.18 0 1 0 22.36 0 a11.18 11.18 0 1 0 -22.36 0zM1155.75 686.52L1160.22 690.98L1184.5 666.7L1180.04 662.24zM1171.09 664.47 a11.18 11.18 0 1 0 22.36 0 a11.18 11.18 0 1 0 -22.36 0zM1182.92 724.96L1185.34 730.79L1213.32 719.2L1210.9 713.37zM1200.93 716.28 a11.18 11.18 0 1 0 22.36 0 a11.18 11.18 0 1 0 -22.36 0zM952.09 774.02 a120.63 120.63 0 1 0 241.26 0 a120.63 120.63 0 1 0 -241.26 0z" fill="rgba(66, 140, 222, 0.13)"></path>
        <path d="M952.75 761.33 A119.63359999999999 119.63359999999999 0 0 1 1143.49 676.33M1143.49 676.33 A241.26719999999997 241.26719999999997 0 0 0 952.75 761.33" fill="rgba(34, 111, 196, 0.13)" fill-rule="nonzero"></path>
        <path d="M1029.4 714.62 a24.13 24.13 0 1 0 48.26 0 a24.13 24.13 0 1 0 -48.26 0zM1085.77 757.78 a13.27 13.27 0 1 0 26.54 0 a13.27 13.27 0 1 0 -26.54 0zM1134.47 773.94 a14.48 14.48 0 1 0 28.96 0 a14.48 14.48 0 1 0 -28.96 0zM1032.81 793.7 a20.51 20.51 0 1 0 41.02 0 a20.51 20.51 0 1 0 -41.02 0zM1063.48 857.49 a24.13 24.13 0 1 0 48.26 0 a24.13 24.13 0 1 0 -48.26 0zM1141.91 823.62 a10.86 10.86 0 1 0 21.72 0 a10.86 10.86 0 1 0 -21.72 0zM963.1 727.33 a15.68 15.68 0 1 0 31.36 0 a15.68 15.68 0 1 0 -31.36 0zM957.06 806.38 a4.83 4.83 0 1 0 9.66 0 a4.83 4.83 0 1 0 -9.66 0zM1118.94 721 a8.44 8.44 0 1 0 16.88 0 a8.44 8.44 0 1 0 -16.88 0zM1096.63 666.24 a7.24 7.24 0 1 0 14.48 0 a7.24 7.24 0 1 0 -14.48 0z" fill="rgba(34, 111, 196, 0.13)" fill-rule="nonzero"></path>
        <path d="M196.91 569.8L196.91 572.96L215.97 572.96L215.97 569.8zM210.38 571.38 a5.59 5.59 0 1 0 11.18 0 a5.59 5.59 0 1 0 -11.18 0zM192.92 593L191.71 595.91L200.26 599.45L201.47 596.54zM195.27 598 a5.59 5.59 0 1 0 11.18 0 a5.59 5.59 0 1 0 -11.18 0zM180.36 612.9L178.13 615.13L190.65 627.66L192.89 625.42zM186.18 626.54 a5.59 5.59 0 1 0 11.18 0 a5.59 5.59 0 1 0 -11.18 0zM161.14 626.48L158.23 627.69L166.36 647.31L169.27 646.11zM162.22 646.71 a5.59 5.59 0 1 0 11.18 0 a5.59 5.59 0 1 0 -11.18 0zM138.19 631.68L135.03 631.68L135.03 658.31L138.19 658.31zM131.02 658.31 a5.59 5.59 0 1 0 11.18 0 a5.59 5.59 0 1 0 -11.18 0zM115 627.69L112.08 626.48L105.89 641.41L108.81 642.62zM101.76 642.02 a5.59 5.59 0 1 0 11.18 0 a5.59 5.59 0 1 0 -11.18 0zM95.09 615.13L92.86 612.9L85.1 620.66L87.34 622.89zM80.63 621.77 a5.59 5.59 0 1 0 11.18 0 a5.59 5.59 0 1 0 -11.18 0zM81.51 595.91L80.3 593L67.83 598.16L69.04 601.08zM62.84 599.62 a5.59 5.59 0 1 0 11.18 0 a5.59 5.59 0 1 0 -11.18 0zM76.32 572.96L76.32 569.8L63.41 569.8L63.41 572.96zM57.82 571.38 a5.59 5.59 0 1 0 11.18 0 a5.59 5.59 0 1 0 -11.18 0zM80.3 549.77L81.51 546.85L57.92 537.08L56.71 540zM51.73 538.54 a5.59 5.59 0 1 0 11.18 0 a5.59 5.59 0 1 0 -11.18 0zM92.86 529.86L95.09 527.63L89.13 521.67L86.9 523.9zM82.43 522.78 a5.59 5.59 0 1 0 11.18 0 a5.59 5.59 0 1 0 -11.18 0zM112.08 516.28L115 515.07L109.86 502.66L106.94 503.87zM102.81 503.27 a5.59 5.59 0 1 0 11.18 0 a5.59 5.59 0 1 0 -11.18 0zM135.03 511.08L138.19 511.08L138.19 484.43L135.03 484.43zM131.02 484.43 a5.59 5.59 0 1 0 11.18 0 a5.59 5.59 0 1 0 -11.18 0zM158.23 515.07L161.14 516.28L170.9 492.74L167.98 491.53zM163.85 492.13 a5.59 5.59 0 1 0 11.18 0 a5.59 5.59 0 1 0 -11.18 0zM178.13 527.63L180.36 529.86L195.49 514.74L193.26 512.5zM188.78 513.62 a5.59 5.59 0 1 0 11.18 0 a5.59 5.59 0 1 0 -11.18 0zM191.71 546.85L192.92 549.77L217.42 539.62L216.22 536.7zM211.23 538.16 a5.59 5.59 0 1 0 11.18 0 a5.59 5.59 0 1 0 -11.18 0zM76.29 571.38 a60.32 60.32 0 1 0 120.64 0 a60.32 60.32 0 1 0 -120.64 0z" fill="rgba(66, 140, 222, 0.13)"></path>
        <path d="M94.79 614.84 A59.31679999999999 59.31679999999999 0 0 1 119.76 513.47M119.76 513.47 A120.63359999999999 120.63359999999999 0 0 0 94.79 614.84" fill="rgba(34, 111, 196, 0.13)" fill-rule="nonzero"></path>
        <path d="M154.75 622.74 a4.22 4.22 0 1 0 8.44 0 a4.22 4.22 0 1 0 -8.44 0zM179.55 565.3 a8.44 8.44 0 1 0 16.88 0 a8.44 8.44 0 1 0 -16.88 0zM98.58 533.03 a12.06 12.06 0 1 0 24.12 0 a12.06 12.06 0 1 0 -24.12 0zM147.85 540.42 a12.06 12.06 0 1 0 24.12 0 a12.06 12.06 0 1 0 -24.12 0zM134.73 595.24 a12.06 12.06 0 1 0 24.12 0 a12.06 12.06 0 1 0 -24.12 0zM93.97 604.59 a12.06 12.06 0 1 0 24.12 0 a12.06 12.06 0 1 0 -24.12 0zM81.82 554.72 a6.63 6.63 0 1 0 13.26 0 a6.63 6.63 0 1 0 -13.26 0zM170.69 609.95 a3.62 3.62 0 1 0 7.24 0 a3.62 3.62 0 1 0 -7.24 0zM135.21 557.05 a3.02 3.02 0 1 0 6.04 0 a3.02 3.02 0 1 0 -6.04 0zM76.93 574.92 a2.41 2.41 0 1 0 4.82 0 a2.41 2.41 0 1 0 -4.82 0z" fill="rgba(34, 111, 196, 0.13)" fill-rule="nonzero"></path>
        <path d="M374.7 1411.85L374.7 1415.01L387.5 1415.01L387.5 1411.85zM381.91 1413.43 a5.59 5.59 0 1 0 11.18 0 a5.59 5.59 0 1 0 -11.18 0zM370.71 1435.05L369.5 1437.96L387.11 1445.26L388.32 1442.34zM382.13 1443.8 a5.59 5.59 0 1 0 11.18 0 a5.59 5.59 0 1 0 -11.18 0zM358.15 1454.95L355.92 1457.18L368.39 1469.66L370.63 1467.42zM363.92 1468.54 a5.59 5.59 0 1 0 11.18 0 a5.59 5.59 0 1 0 -11.18 0zM338.94 1468.53L336.02 1469.74L347.35 1497.09L350.26 1495.88zM343.21 1496.48 a5.59 5.59 0 1 0 11.18 0 a5.59 5.59 0 1 0 -11.18 0zM315.98 1473.73L312.82 1473.73L312.82 1491.34L315.98 1491.34zM308.81 1491.34 a5.59 5.59 0 1 0 11.18 0 a5.59 5.59 0 1 0 -11.18 0zM292.79 1469.74L289.87 1468.53L283.21 1484.62L286.12 1485.83zM279.08 1485.22 a5.59 5.59 0 1 0 11.18 0 a5.59 5.59 0 1 0 -11.18 0zM272.88 1457.18L270.65 1454.95L251.71 1473.89L253.95 1476.12zM247.24 1475 a5.59 5.59 0 1 0 11.18 0 a5.59 5.59 0 1 0 -11.18 0zM259.3 1437.96L258.09 1435.05L237.4 1443.62L238.61 1446.54zM232.41 1445.08 a5.59 5.59 0 1 0 11.18 0 a5.59 5.59 0 1 0 -11.18 0zM254.11 1415.01L254.11 1411.85L246.61 1411.85L246.61 1415.01zM241.02 1413.43 a5.59 5.59 0 1 0 11.18 0 a5.59 5.59 0 1 0 -11.18 0zM258.09 1391.82L259.3 1388.9L234.61 1378.67L233.41 1381.59zM228.42 1380.13 a5.59 5.59 0 1 0 11.18 0 a5.59 5.59 0 1 0 -11.18 0zM270.65 1371.91L272.88 1369.68L253.29 1350.09L251.06 1352.32zM246.58 1351.2 a5.59 5.59 0 1 0 11.18 0 a5.59 5.59 0 1 0 -11.18 0zM289.87 1358.33L292.79 1357.12L281.6 1330.11L278.68 1331.32zM274.55 1330.71 a5.59 5.59 0 1 0 11.18 0 a5.59 5.59 0 1 0 -11.18 0zM312.82 1353.14L315.98 1353.14L315.98 1327.13L312.82 1327.13zM308.81 1327.13 a5.59 5.59 0 1 0 11.18 0 a5.59 5.59 0 1 0 -11.18 0zM336.02 1357.12L338.94 1358.33L347.91 1336.66L344.99 1335.46zM340.86 1336.06 a5.59 5.59 0 1 0 11.18 0 a5.59 5.59 0 1 0 -11.18 0zM355.92 1369.68L358.15 1371.91L366.93 1363.14L364.7 1360.9zM360.22 1362.02 a5.59 5.59 0 1 0 11.18 0 a5.59 5.59 0 1 0 -11.18 0zM369.5 1388.9L370.71 1391.82L393.95 1382.19L392.74 1379.27zM387.75 1380.73 a5.59 5.59 0 1 0 11.18 0 a5.59 5.59 0 1 0 -11.18 0zM254.08 1413.43 a60.32 60.32 0 1 0 120.64 0 a60.32 60.32 0 1 0 -120.64 0z" fill="rgba(66, 140, 222, 0.13)"></path>
        <path d="M256.33 1429.72 A59.31679999999999 59.31679999999999 0 0 1 329.21 1354.96M329.21 1354.96 A120.63359999999999 120.63359999999999 0 0 0 256.33 1429.72" fill="rgba(34, 111, 196, 0.13)" fill-rule="nonzero"></path>
        <path d="M314.45 1430.53 a12.06 12.06 0 1 0 24.12 0 a12.06 12.06 0 1 0 -24.12 0zM359.17 1423.96 a7.24 7.24 0 1 0 14.48 0 a7.24 7.24 0 1 0 -14.48 0zM289.69 1416.46 a7.84 7.84 0 1 0 15.68 0 a7.84 7.84 0 1 0 -15.68 0zM316.35 1466.25 a6.63 6.63 0 1 0 13.26 0 a6.63 6.63 0 1 0 -13.26 0zM279.8 1436.85 a4.22 4.22 0 1 0 8.44 0 a4.22 4.22 0 1 0 -8.44 0zM336.06 1404.28 a6.63 6.63 0 1 0 13.26 0 a6.63 6.63 0 1 0 -13.26 0zM314.76 1399.37 a4.83 4.83 0 1 0 9.66 0 a4.83 4.83 0 1 0 -9.66 0zM294.24 1465.11 a4.83 4.83 0 1 0 9.66 0 a4.83 4.83 0 1 0 -9.66 0zM269.3 1412.24 a4.22 4.22 0 1 0 8.44 0 a4.22 4.22 0 1 0 -8.44 0zM313.29 1373.19 a9.05 9.05 0 1 0 18.1 0 a9.05 9.05 0 1 0 -18.1 0z" fill="rgba(34, 111, 196, 0.13)" fill-rule="nonzero"></path>
        <path d="M866.98 1192.81L866.98 1199.12L924.39 1199.12L924.39 1192.81zM913.21 1195.97 a11.18 11.18 0 1 0 22.36 0 a11.18 11.18 0 1 0 -22.36 0zM859.01 1239.2L856.59 1245.03L878.94 1254.29L881.36 1248.45zM868.97 1251.37 a11.18 11.18 0 1 0 22.36 0 a11.18 11.18 0 1 0 -22.36 0zM833.89 1279L829.43 1283.47L854.12 1308.16L858.59 1303.7zM845.17 1305.93 a11.18 11.18 0 1 0 22.36 0 a11.18 11.18 0 1 0 -22.36 0zM795.46 1306.17L789.62 1308.59L807.25 1351.14L813.08 1348.72zM798.98 1349.93 a11.18 11.18 0 1 0 22.36 0 a11.18 11.18 0 1 0 -22.36 0zM749.55 1316.56L743.23 1316.56L743.23 1334.87L749.55 1334.87zM735.21 1334.87 a11.18 11.18 0 1 0 22.36 0 a11.18 11.18 0 1 0 -22.36 0zM703.16 1308.59L697.32 1306.17L680.32 1347.21L686.16 1349.63zM672.06 1348.42 a11.18 11.18 0 1 0 22.36 0 a11.18 11.18 0 1 0 -22.36 0zM663.35 1283.47L658.89 1279L628.48 1309.41L632.95 1313.88zM619.53 1311.64 a11.18 11.18 0 1 0 22.36 0 a11.18 11.18 0 1 0 -22.36 0zM636.19 1245.03L633.77 1239.2L583.66 1259.95L586.07 1265.79zM573.69 1262.87 a11.18 11.18 0 1 0 22.36 0 a11.18 11.18 0 1 0 -22.36 0zM625.8 1199.12L625.8 1192.81L598.36 1192.81L598.36 1199.12zM587.18 1195.97 a11.18 11.18 0 1 0 22.36 0 a11.18 11.18 0 1 0 -22.36 0zM633.77 1152.73L636.19 1146.9L618 1139.37L615.59 1145.2zM605.61 1142.29 a11.18 11.18 0 1 0 22.36 0 a11.18 11.18 0 1 0 -22.36 0zM658.89 1112.93L663.35 1108.46L643.84 1088.95L639.38 1093.42zM630.43 1091.19 a11.18 11.18 0 1 0 22.36 0 a11.18 11.18 0 1 0 -22.36 0zM697.32 1085.76L703.16 1083.34L690.62 1053.08L684.79 1055.5zM676.52 1054.29 a11.18 11.18 0 1 0 22.36 0 a11.18 11.18 0 1 0 -22.36 0zM743.23 1075.37L749.55 1075.37L749.55 1030.65L743.23 1030.65zM735.21 1030.65 a11.18 11.18 0 1 0 22.36 0 a11.18 11.18 0 1 0 -22.36 0zM789.62 1083.34L795.46 1085.76L814.47 1039.86L808.63 1037.45zM800.37 1038.65 a11.18 11.18 0 1 0 22.36 0 a11.18 11.18 0 1 0 -22.36 0zM829.43 1108.46L833.89 1112.93L865.31 1081.51L860.85 1077.04zM851.9 1079.28 a11.18 11.18 0 1 0 22.36 0 a11.18 11.18 0 1 0 -22.36 0zM856.59 1146.9L859.01 1152.73L893.43 1138.48L891.02 1132.64zM881.05 1135.56 a11.18 11.18 0 1 0 22.36 0 a11.18 11.18 0 1 0 -22.36 0zM625.76 1195.97 a120.63 120.63 0 1 0 241.26 0 a120.63 120.63 0 1 0 -241.26 0z" fill="rgba(66, 140, 222, 0.13)"></path>
        <path d="M767.28 1314.78 A119.63359999999999 119.63359999999999 0 0 1 632.97 1154.88M632.97 1154.88 A241.26719999999997 241.26719999999997 0 0 0 767.28 1314.78" fill="rgba(34, 111, 196, 0.13)" fill-rule="nonzero"></path>
        <path d="M639.64 1207.8 a24.13 24.13 0 1 0 48.26 0 a24.13 24.13 0 1 0 -48.26 0zM729.43 1279.61 a24.13 24.13 0 1 0 48.26 0 a24.13 24.13 0 1 0 -48.26 0zM710.4 1191.41 a16.89 16.89 0 1 0 33.78 0 a16.89 16.89 0 1 0 -33.78 0zM787.13 1147.65 a24.13 24.13 0 1 0 48.26 0 a24.13 24.13 0 1 0 -48.26 0zM794.81 1243.2 a24.13 24.13 0 1 0 48.26 0 a24.13 24.13 0 1 0 -48.26 0zM674.76 1103.11 a6.03 6.03 0 1 0 12.06 0 a6.03 6.03 0 1 0 -12.06 0zM745.44 1120.19 a12.06 12.06 0 1 0 24.12 0 a12.06 12.06 0 1 0 -24.12 0zM676.75 1259.05 a4.83 4.83 0 1 0 9.66 0 a4.83 4.83 0 1 0 -9.66 0zM851.16 1186.72 a7.24 7.24 0 1 0 14.48 0 a7.24 7.24 0 1 0 -14.48 0zM763.33 1224.94 a4.83 4.83 0 1 0 9.66 0 a4.83 4.83 0 1 0 -9.66 0z" fill="rgba(34, 111, 196, 0.13)" fill-rule="nonzero"></path>
        <path d="M1521.74 583.26L1521.74 586.42L1534.6 586.42L1534.6 583.26zM1529.01 584.84 a5.59 5.59 0 1 0 11.18 0 a5.59 5.59 0 1 0 -11.18 0zM1517.75 606.45L1516.54 609.37L1538.25 618.36L1539.46 615.45zM1533.27 616.9 a5.59 5.59 0 1 0 11.18 0 a5.59 5.59 0 1 0 -11.18 0zM1505.19 626.36L1502.96 628.59L1509 634.64L1511.24 632.4zM1504.53 633.52 a5.59 5.59 0 1 0 11.18 0 a5.59 5.59 0 1 0 -11.18 0zM1485.97 639.94L1483.05 641.15L1492.79 664.64L1495.7 663.43zM1488.66 664.04 a5.59 5.59 0 1 0 11.18 0 a5.59 5.59 0 1 0 -11.18 0zM1463.02 645.13L1459.86 645.13L1459.86 663.77L1463.02 663.77zM1455.85 663.77 a5.59 5.59 0 1 0 11.18 0 a5.59 5.59 0 1 0 -11.18 0zM1439.82 641.15L1436.91 639.94L1430.71 654.91L1433.62 656.11zM1426.58 655.51 a5.59 5.59 0 1 0 11.18 0 a5.59 5.59 0 1 0 -11.18 0zM1419.92 628.59L1417.69 626.36L1398.14 645.91L1400.37 648.14zM1393.66 647.02 a5.59 5.59 0 1 0 11.18 0 a5.59 5.59 0 1 0 -11.18 0zM1406.34 609.37L1405.13 606.45L1381.87 616.09L1383.07 619.01zM1376.88 617.55 a5.59 5.59 0 1 0 11.18 0 a5.59 5.59 0 1 0 -11.18 0zM1401.14 586.42L1401.14 583.26L1379.92 583.26L1379.92 586.42zM1374.33 584.84 a5.59 5.59 0 1 0 11.18 0 a5.59 5.59 0 1 0 -11.18 0zM1405.13 563.22L1406.34 560.3L1384.57 551.29L1383.36 554.21zM1378.38 552.75 a5.59 5.59 0 1 0 11.18 0 a5.59 5.59 0 1 0 -11.18 0zM1417.69 543.32L1419.92 541.09L1400.4 521.57L1398.17 523.8zM1393.7 522.69 a5.59 5.59 0 1 0 11.18 0 a5.59 5.59 0 1 0 -11.18 0zM1436.91 529.74L1439.82 528.53L1433.55 513.38L1430.63 514.59zM1426.5 513.99 a5.59 5.59 0 1 0 11.18 0 a5.59 5.59 0 1 0 -11.18 0zM1459.86 524.54L1463.02 524.54L1463.02 500.11L1459.86 500.11zM1455.85 500.11 a5.59 5.59 0 1 0 11.18 0 a5.59 5.59 0 1 0 -11.18 0zM1483.05 528.53L1485.97 529.74L1494.25 509.74L1491.34 508.53zM1487.2 509.14 a5.59 5.59 0 1 0 11.18 0 a5.59 5.59 0 1 0 -11.18 0zM1502.96 541.09L1505.19 543.32L1523.28 525.23L1521.05 523zM1516.57 524.11 a5.59 5.59 0 1 0 11.18 0 a5.59 5.59 0 1 0 -11.18 0zM1516.54 560.3L1517.75 563.22L1524.97 560.23L1523.76 557.32zM1518.77 558.77 a5.59 5.59 0 1 0 11.18 0 a5.59 5.59 0 1 0 -11.18 0zM1401.12 584.84 a60.32 60.32 0 1 0 120.64 0 a60.32 60.32 0 1 0 -120.64 0z" fill="rgba(66, 140, 222, 0.13)"></path>
        <path d="M1445.3 526.72 A59.31679999999999 59.31679999999999 0 0 1 1519.87 599.8M1519.87 599.8 A120.63359999999999 120.63359999999999 0 0 0 1445.3 526.72" fill="rgba(34, 111, 196, 0.13)" fill-rule="nonzero"></path>
        <path d="M1436.35 557.91 a12.06 12.06 0 1 0 24.12 0 a12.06 12.06 0 1 0 -24.12 0zM1447.54 631.84 a12.06 12.06 0 1 0 24.12 0 a12.06 12.06 0 1 0 -24.12 0zM1465.6 579.85 a11.46 11.46 0 1 0 22.92 0 a11.46 11.46 0 1 0 -22.92 0zM1411.51 598.27 a12.06 12.06 0 1 0 24.12 0 a12.06 12.06 0 1 0 -24.12 0zM1468.24 532.6 a6.03 6.03 0 1 0 12.06 0 a6.03 6.03 0 1 0 -12.06 0zM1487.88 612.19 a12.06 12.06 0 1 0 24.12 0 a12.06 12.06 0 1 0 -24.12 0zM1412.22 552.26 a4.83 4.83 0 1 0 9.66 0 a4.83 4.83 0 1 0 -9.66 0zM1514.2 580.94 a3.62 3.62 0 1 0 7.24 0 a3.62 3.62 0 1 0 -7.24 0zM1468.23 605.3 a2.41 2.41 0 1 0 4.82 0 a2.41 2.41 0 1 0 -4.82 0zM1424.61 631.25 a2.41 2.41 0 1 0 4.82 0 a2.41 2.41 0 1 0 -4.82 0z" fill="rgba(34, 111, 196, 0.13)" fill-rule="nonzero"></path>
        <path d="M456.24 2110.58L456.24 2116.9L497.7 2116.9L497.7 2110.58zM486.52 2113.74 a11.18 11.18 0 1 0 22.36 0 a11.18 11.18 0 1 0 -22.36 0zM448.26 2156.97L445.85 2162.81L471.51 2173.44L473.93 2167.6zM461.54 2170.52 a11.18 11.18 0 1 0 22.36 0 a11.18 11.18 0 1 0 -22.36 0zM423.15 2196.78L418.68 2201.24L459.23 2241.79L463.69 2237.32zM450.28 2239.56 a11.18 11.18 0 1 0 22.36 0 a11.18 11.18 0 1 0 -22.36 0zM384.71 2223.94L378.87 2226.36L387.38 2246.89L393.21 2244.47zM379.11 2245.68 a11.18 11.18 0 1 0 22.36 0 a11.18 11.18 0 1 0 -22.36 0zM338.8 2234.33L332.48 2234.33L332.48 2284.3L338.8 2284.3zM324.46 2284.3 a11.18 11.18 0 1 0 22.36 0 a11.18 11.18 0 1 0 -22.36 0zM292.41 2226.36L286.58 2223.94L275.61 2250.42L281.44 2252.84zM267.35 2251.63 a11.18 11.18 0 1 0 22.36 0 a11.18 11.18 0 1 0 -22.36 0zM252.6 2201.24L248.14 2196.78L206.03 2238.89L210.5 2243.35zM197.08 2241.12 a11.18 11.18 0 1 0 22.36 0 a11.18 11.18 0 1 0 -22.36 0zM225.44 2162.81L223.02 2156.97L183.97 2173.15L186.39 2178.98zM174 2176.06 a11.18 11.18 0 1 0 22.36 0 a11.18 11.18 0 1 0 -22.36 0zM215.05 2116.9L215.05 2110.58L197.47 2110.58L197.47 2116.9zM186.29 2113.74 a11.18 11.18 0 1 0 22.36 0 a11.18 11.18 0 1 0 -22.36 0zM223.02 2070.51L225.44 2064.67L207.87 2057.39L205.45 2063.23zM195.48 2060.31 a11.18 11.18 0 1 0 22.36 0 a11.18 11.18 0 1 0 -22.36 0zM248.14 2030.7L252.6 2026.23L232.59 2006.22L228.13 2010.69zM219.18 2008.46 a11.18 11.18 0 1 0 22.36 0 a11.18 11.18 0 1 0 -22.36 0zM286.58 2003.54L292.41 2001.12L276.34 1962.32L270.5 1964.73zM262.24 1963.52 a11.18 11.18 0 1 0 22.36 0 a11.18 11.18 0 1 0 -22.36 0zM332.48 1993.15L338.8 1993.15L338.8 1936.42L332.48 1936.42zM324.46 1936.42 a11.18 11.18 0 1 0 22.36 0 a11.18 11.18 0 1 0 -22.36 0zM378.87 2001.12L384.71 2003.54L406.51 1950.89L400.68 1948.48zM392.42 1949.68 a11.18 11.18 0 1 0 22.36 0 a11.18 11.18 0 1 0 -22.36 0zM418.68 2026.23L423.15 2030.7L436.84 2017L432.38 2012.54zM423.43 2014.77 a11.18 11.18 0 1 0 22.36 0 a11.18 11.18 0 1 0 -22.36 0zM445.85 2064.67L448.26 2070.51L469.37 2061.77L466.95 2055.93zM456.98 2058.85 a11.18 11.18 0 1 0 22.36 0 a11.18 11.18 0 1 0 -22.36 0zM215.01 2113.74 a120.63 120.63 0 1 0 241.26 0 a120.63 120.63 0 1 0 -241.26 0z" fill="rgba(66, 140, 222, 0.13)"></path>
        <path d="M387.22 2004.69 A119.63359999999999 119.63359999999999 0 0 1 404.51 2212.79M404.51 2212.79 A241.26719999999997 241.26719999999997 0 0 0 387.22 2004.69" fill="rgba(34, 111, 196, 0.13)" fill-rule="nonzero"></path>
        <path d="M404.71 2059.78 a18.09 18.09 0 1 0 36.18 0 a18.09 18.09 0 1 0 -36.18 0zM326.48 2193.83 a24.13 24.13 0 1 0 48.26 0 a24.13 24.13 0 1 0 -48.26 0zM267.13 2021.63 a12.06 12.06 0 1 0 24.12 0 a12.06 12.06 0 1 0 -24.12 0zM245.34 2127.55 a24.13 24.13 0 1 0 48.26 0 a24.13 24.13 0 1 0 -48.26 0zM407.73 2169.59 a15.68 15.68 0 1 0 31.36 0 a15.68 15.68 0 1 0 -31.36 0zM310.91 2096.23 a21.71 21.71 0 1 0 43.42 0 a21.71 21.71 0 1 0 -43.42 0zM243.55 2178.14 a6.03 6.03 0 1 0 12.06 0 a6.03 6.03 0 1 0 -12.06 0zM369.67 2128.71 a13.27 13.27 0 1 0 26.54 0 a13.27 13.27 0 1 0 -26.54 0zM426.91 2123.1 a7.24 7.24 0 1 0 14.48 0 a7.24 7.24 0 1 0 -14.48 0zM224.03 2077.16 a12.06 12.06 0 1 0 24.12 0 a12.06 12.06 0 1 0 -24.12 0z" fill="rgba(34, 111, 196, 0.13)" fill-rule="nonzero"></path>
    </g>
    <defs>
        <mask id="SvgjsMask1187">
            <rect width="1560" height="2440" fill="#ffffff"></rect>
        </mask>
    </defs>
</svg>